<?xml version="1.0" encoding="UTF-8" standalone="no"?><!DOCTYPE svg PUBLIC "-//W3C//DTD SVG 1.1//EN" "http://www.w3.org/Graphics/SVG/1.1/DTD/svg11.dtd"><svg width="100%" height="100%" viewBox="0 0 4319 1150" version="1.1" xmlns="http://www.w3.org/2000/svg" xmlns:xlink="http://www.w3.org/1999/xlink" xml:space="preserve" xmlns:serif="http://www.serif.com/" style="fill-rule:evenodd;clip-rule:evenodd;stroke-linejoin:round;stroke-miterlimit:2;"><g id="Footer"><g><rect id="Border" x="-0" y="0" width="1149.92" height="1149.92"/><rect id="Back" x="35.935" y="35.935" width="1078.05" height="1078.05"/><rect id="Inset" x="58.394" y="424.481" width="1035.37" height="300.955" style="fill:#fff;"/><path id="TUSC" d="M56.373,156.276l68.108,0l-0,217.925l66.773,0l0,-217.925l68.104,0l-0,-71.458l-202.985,-0l-0,71.458Zm237.619,98.105c0,20.529 1.114,35.727 3.342,45.592c3.564,15.53 8.437,27.933 14.619,37.208c6.23,9.334 14.03,17.518 23.054,24.189c9.838,7.157 20.91,12.443 32.661,15.594c14.556,3.798 29.563,5.591 44.604,5.329c13.79,0.118 27.532,-1.642 40.847,-5.231c11.731,-3.107 22.799,-8.324 32.662,-15.395c9.157,-6.69 17.097,-14.903 23.472,-24.281c6.597,-9.86 11.273,-20.877 13.781,-32.472c2.784,-12.239 4.176,-28.885 4.178,-49.94l-0,-167.194l-79.187,-0l-0,176.472c-0,16.32 -3.231,28.197 -9.691,35.629c-6.461,7.433 -15.538,11.15 -27.23,11.153c-7.509,0.139 -14.912,-1.804 -21.384,-5.614c-5.825,-3.281 -10.386,-8.423 -12.947,-14.599c-2.396,-5.989 -3.594,-14.839 -3.594,-26.549l0,-176.492l-79.187,-0l0,166.601Zm291.183,96.33c18.866,18.95 52.802,28.424 101.81,28.424c27.908,0 51.034,-4.046 69.379,-12.139c17.488,-7.379 32.401,-19.781 42.846,-35.629c10.085,-15.208 15.422,-33.077 15.33,-51.324c0.196,-15.065 -3.784,-29.893 -11.497,-42.835c-7.666,-12.762 -19.917,-23.455 -36.754,-32.076c-16.837,-8.621 -44.714,-17.142 -83.63,-25.563c-15.721,-3.294 -25.678,-6.847 -29.871,-10.659c-3.943,-2.937 -6.334,-7.522 -6.486,-12.436c-0.014,-6.287 2.893,-12.236 7.861,-16.088c5.241,-4.408 13.037,-6.612 23.389,-6.612c12.577,0 22.437,2.961 29.579,8.883c7.142,5.922 11.826,15.397 14.053,28.424l83.926,-4.941c-3.67,-30.004 -15.169,-51.882 -34.496,-65.635c-19.327,-13.752 -47.401,-20.629 -84.222,-20.629c-30.006,0 -53.624,3.784 -70.855,11.351c-17.23,7.568 -30.135,17.966 -38.715,31.194c-8.351,12.47 -12.83,27.137 -12.869,42.145c-0.525,21.459 8.739,42.032 25.154,55.863c16.638,14.608 44.482,26.32 83.531,35.138c23.847,5.264 39.045,10.856 45.592,16.777c6.548,5.92 9.823,12.632 9.826,20.134c0,7.897 -3.439,14.839 -10.317,20.827c-6.879,5.988 -16.674,8.982 -29.384,8.984c-17.036,-0 -30.137,-5.857 -39.304,-17.57c-5.636,-7.235 -9.37,-17.763 -11.202,-31.582l-84.71,5.329c2.485,29.217 13.164,53.298 32.036,72.245Zm497.929,-193.047c-5.167,-15.082 -13.149,-29.048 -23.521,-41.156c-10.63,-12.166 -24.123,-21.497 -39.257,-27.149c-16.279,-6.252 -33.586,-9.399 -51.023,-9.278c-19.723,-0.252 -39.246,4.001 -57.076,12.436c-14.189,7.139 -26.735,17.16 -36.833,29.421c-11.752,14.279 -20.621,30.704 -26.116,48.362c-6.477,20.083 -9.689,41.077 -9.514,62.178c-0.325,24.449 4.141,48.727 13.146,71.459c6.034,15.094 14.8,28.946 25.857,40.86c11.388,12.101 25.333,21.51 40.818,27.538c16.873,6.639 34.872,9.957 53.004,9.772c17.383,0.352 34.639,-3.049 50.589,-9.97c14.452,-6.543 27.315,-16.14 37.705,-28.128c9.653,-10.646 17.3,-22.952 22.572,-36.321c5.003,-14.479 8.142,-29.536 9.338,-44.809l-79.214,0c-1.383,15.66 -5.823,27.471 -13.318,35.432c-7.496,7.961 -17.584,11.942 -30.266,11.942c-9.267,0.332 -18.398,-2.333 -26.031,-7.598c-6.979,-5.064 -12.427,-12.796 -16.346,-23.196c-3.918,-10.4 -5.881,-25.536 -5.888,-45.408c-0,-28.95 4.583,-49.875 13.749,-62.774c9.167,-12.899 21.015,-19.347 35.544,-19.344c10.86,-0.324 21.354,4.027 28.798,11.941c7.55,7.964 12.018,19.119 13.403,33.465l77.831,-0c-0.995,-13.504 -3.666,-26.831 -7.951,-39.675Z" style="fill:#fff;fill-rule:nonzero;"/><path id="AGAINST" d="M113.114,700.699l5.839,-32.914l51.208,-0l5.94,32.914l51.207,-0l-56.076,-251.349l-52.285,-0l-56.061,251.349l50.228,-0Zm48.063,-84.535l-32.723,0l16.096,-91.29l16.627,91.29Zm209.139,-121.431c-5.856,-16.049 -14.132,-28.752 -24.829,-38.109c-10.26,-9.187 -23.604,-14.196 -37.375,-14.03c-12.557,-0.059 -24.843,3.686 -35.232,10.74c-9.592,6.942 -17.55,15.9 -23.312,26.244c-7.159,12.259 -12.378,25.552 -15.472,39.407c-4.248,19.164 -6.317,38.747 -6.168,58.376c0,27.023 3.346,50.698 10.037,71.023c6.692,20.326 15.597,35.252 26.718,44.777c10.369,9.244 23.798,14.337 37.689,14.293c6.851,0.144 13.645,-1.279 19.863,-4.159c5.431,-2.556 10.272,-6.213 14.217,-10.738c4.06,-5.098 7.565,-10.616 10.454,-16.458l1.986,24.6l32.2,-0l-0,-138.408l-68.162,-0l-0,54.217l21.848,-0c-0.912,7.521 -3.981,14.62 -8.833,20.438c-4.219,5.734 -10.914,9.142 -18.033,9.181c-8.983,0 -16.301,-5.514 -21.953,-16.543c-5.653,-11.029 -8.476,-28.727 -8.47,-53.092c0,-24.946 2.84,-43.138 8.521,-54.576c5.681,-11.438 12.772,-17.154 21.274,-17.148c6.155,0.046 11.938,3.004 15.577,7.969c4.322,5.312 7.391,12.934 9.209,22.866l47.043,-0c-1.228,-13.936 -4.178,-27.666 -8.782,-40.876l-0.015,0.006Zm71.458,205.966l5.84,-32.914l51.207,-0l5.94,32.914l51.208,-0l-56.07,-251.349l-52.285,-0l-56.065,251.349l50.225,-0Zm48.063,-84.535l-32.716,0l16.096,-91.29l16.62,91.29Zm132.476,84.535l0,-251.349l-51.398,-0l0,251.349l51.432,-0l-0.034,-0Zm75.329,-0l-0,-131.306l52.824,131.306l48.937,-0l-0,-251.349l-49.244,-0l-0,134.592l-54.013,-134.594l-47.856,-0l-0,251.351l49.368,-0l-0.016,-0Zm132.249,-20.616c11.038,16.631 30.894,24.946 59.567,24.946c16.331,-0 29.862,-3.552 40.595,-10.655c11.245,-7.732 19.966,-18.609 25.069,-31.265c6.078,-14.23 9.133,-29.568 8.97,-45.04c0.181,-12.845 -2.106,-25.606 -6.737,-37.588c-4.463,-11.171 -11.902,-20.908 -21.505,-28.151c-9.851,-7.563 -26.161,-15.04 -48.93,-22.432c-9.199,-2.884 -15.026,-6.002 -17.48,-9.354c-2.481,-3.093 -3.821,-6.949 -3.794,-10.913c-0.148,-5.096 1.479,-10.088 4.6,-14.118c3.37,-4.006 8.462,-6.165 13.685,-5.801c6.676,-0.308 13.112,2.59 17.307,7.793c4.177,5.197 6.918,13.512 8.222,24.945l49.103,-4.33c-2.147,-26.331 -8.875,-45.53 -20.182,-57.597c-11.308,-12.066 -27.733,-18.1 -49.276,-18.102c-17.557,0 -31.376,3.32 -41.457,9.961c-10.104,6.666 -17.992,16.197 -22.653,27.369c-5.037,11.675 -7.602,24.268 -7.533,36.984c0,19.863 4.907,36.203 14.72,49.021c9.732,12.819 26.024,23.097 48.874,30.835c13.952,4.62 22.844,9.528 26.677,14.722c7.748,10.724 7.631,25.336 -0.288,35.935c-4.077,5.277 -10.497,8.229 -17.158,7.89c-9.968,-0 -17.635,-5.14 -23.001,-15.419c-3.294,-6.348 -5.479,-15.586 -6.554,-27.714l-49.563,4.676c1.451,25.638 7.697,46.772 18.738,63.402l-0.016,0Zm141.112,-164.561l37.375,-0l-0,185.177l41.293,-0l0,-185.177l37.375,-0l-0,-66.172l-116.027,-0l-0,66.172l-0.016,-0Z" style="fill-rule:nonzero;"/><path id="CUTS" d="M617.855,845.777l68.104,-0l-0,217.925l66.773,-0l0,-217.925l68.104,-0l-0,-71.459l-202.981,-0l0,71.459Zm-263.223,95.858c0,20.531 1.114,35.729 3.342,45.593c3.564,15.531 8.437,27.934 14.619,37.208c6.23,9.334 14.031,17.518 23.054,24.189c9.839,7.156 20.91,12.442 32.661,15.593c14.556,3.798 29.563,5.592 44.604,5.33c13.79,0.118 27.532,-1.642 40.847,-5.231c11.731,-3.107 22.799,-8.324 32.662,-15.396c9.157,-6.689 17.097,-14.902 23.472,-24.281c6.597,-9.859 11.273,-20.877 13.781,-32.471c2.784,-12.238 4.176,-28.884 4.178,-49.941l-0,-167.194l-79.187,0l-0,176.472c-0,16.321 -3.23,28.197 -9.691,35.63c-6.461,7.432 -15.538,11.15 -27.23,11.153c-7.509,0.139 -14.911,-1.805 -21.383,-5.615c-5.826,-3.281 -10.387,-8.423 -12.948,-14.599c-2.396,-5.989 -3.594,-14.838 -3.594,-26.549l0,-176.492l-79.187,0l0,166.601Zm509.038,98.576c18.866,18.95 52.803,28.425 101.81,28.425c27.908,-0 51.035,-4.047 69.379,-12.139c17.488,-7.38 32.401,-19.781 42.846,-35.63c10.085,-15.207 15.422,-33.076 15.331,-51.324c0.196,-15.064 -3.784,-29.893 -11.497,-42.834c-7.666,-12.763 -19.918,-23.455 -36.755,-32.077c-16.837,-8.621 -44.713,-17.142 -83.629,-25.563c-15.722,-3.294 -25.679,-6.847 -29.871,-10.659c-3.943,-2.937 -6.334,-7.521 -6.486,-12.436c-0.015,-6.287 2.892,-12.237 7.86,-16.089c5.241,-4.407 13.037,-6.611 23.389,-6.612c12.578,-0 22.437,2.96 29.579,8.882c7.142,5.922 11.827,15.397 14.053,28.425l83.926,-4.941c-3.67,-30.003 -15.168,-51.881 -34.495,-65.633c-19.327,-13.753 -47.401,-20.629 -84.223,-20.629c-30.005,-0 -53.623,3.784 -70.854,11.351c-17.231,7.567 -30.136,17.965 -38.716,31.194c-8.352,12.469 -12.832,27.136 -12.873,42.144c-0.525,21.459 8.739,42.032 25.154,55.863c16.638,14.608 44.482,26.321 83.531,35.138c23.847,5.265 39.045,10.857 45.592,16.777c6.548,5.92 9.823,12.632 9.826,20.135c0,7.897 -3.439,14.839 -10.318,20.826c-6.878,5.988 -16.673,8.983 -29.383,8.984c-17.036,0 -30.138,-5.856 -39.304,-17.57c-5.636,-7.235 -9.37,-17.762 -11.203,-31.582l-84.709,5.33c2.49,29.216 13.17,53.298 32.04,72.244Zm-564.395,-188.554c-5.168,-15.083 -13.15,-29.049 -23.522,-41.157c-10.629,-12.166 -24.122,-21.497 -39.257,-27.149c-16.277,-6.252 -33.584,-9.399 -51.02,-9.278c-19.723,-0.252 -39.246,4.002 -57.076,12.436c-14.19,7.139 -26.735,17.16 -36.833,29.422c-11.754,14.278 -20.624,30.703 -26.118,48.361c-6.481,20.08 -9.697,41.071 -9.525,62.17c-0.326,24.449 4.14,48.726 13.145,71.459c6.034,15.093 14.8,28.945 25.857,40.86c11.388,12.101 25.334,21.509 40.818,27.537c16.874,6.64 34.872,9.958 53.004,9.772c17.383,0.352 34.64,-3.048 50.59,-9.97c14.451,-6.543 27.315,-16.14 37.704,-28.128c9.653,-10.646 17.3,-22.952 22.572,-36.321c5.004,-14.478 8.142,-29.536 9.338,-44.808l-79.214,-0c-1.383,15.661 -5.823,27.472 -13.318,35.431c-7.495,7.96 -17.585,11.941 -30.268,11.942c-9.267,0.332 -18.398,-2.333 -26.031,-7.598c-6.977,-5.064 -12.425,-12.796 -16.343,-23.196c-3.919,-10.4 -5.878,-25.533 -5.878,-45.399c0,-28.95 4.583,-49.875 13.75,-62.774c9.166,-12.899 21.013,-19.347 35.542,-19.344c10.86,-0.323 21.353,4.028 28.797,11.942c7.551,7.964 12.019,19.118 13.404,33.464l77.83,-0c-0.996,-13.504 -3.668,-26.832 -7.955,-39.677l0.007,0.003Z" style="fill:#fff;fill-rule:nonzero;"/></g><g id="AND-SOCIALIST" serif:id="AND SOCIALIST"><path d="M1402.49,1072.09c-2.537,-0 -4.382,-1.409 -5.535,-4.227c-1.153,-2.818 -1.037,-6.374 0.346,-10.668l83.707,-274.534c1.153,-3.22 2.421,-5.569 3.805,-7.045c1.383,-1.476 3.574,-2.214 6.572,-2.214l68.141,0c5.996,0 10.146,3.623 12.452,10.869l83.015,274.132c0.923,2.684 0.98,5.636 0.173,8.856c-0.807,3.22 -2.479,4.831 -5.015,4.831l-67.796,-0c-3.92,-0 -6.456,-2.282 -7.609,-6.844l-13.49,-46.292c-0.462,-1.342 -0.98,-2.483 -1.557,-3.422c-0.576,-0.939 -1.787,-1.409 -3.632,-1.409l-73.33,0c-2.767,0 -4.496,1.476 -5.188,4.428l-14.182,47.5c-0.461,1.611 -1.326,3.019 -2.594,4.227c-1.268,1.208 -3.171,1.812 -5.707,1.812l-52.576,-0Zm136.282,-126.399c3.459,-0 4.497,-2.684 3.113,-8.051l-20.753,-68.835c-0.461,-1.342 -1.153,-2.013 -2.076,-2.013c-0.922,0 -1.614,0.671 -2.075,2.013l-21.1,68.433c-1.844,5.635 -0.691,8.453 3.459,8.453l39.432,-0Z" style="fill-rule:nonzero;"/><path d="M1904.04,773.402c3.459,0 5.188,2.281 5.188,6.844l0,284.598c0,2.147 -0.749,3.891 -2.248,5.233c-1.499,1.342 -3.401,2.013 -5.707,2.013l-47.388,-0c-1.845,-0 -3.401,-0.336 -4.669,-1.007c-1.269,-0.671 -2.825,-2.348 -4.67,-5.032l-95.121,-150.148c-0.923,-1.342 -1.73,-1.879 -2.422,-1.61c-0.691,0.268 -1.037,1.073 -1.037,2.415l-0,146.526c0.23,5.904 -2.537,8.856 -8.302,8.856l-47.041,-0c-5.765,-0 -8.648,-2.684 -8.648,-8.051l0,-281.378c0,-6.172 2.537,-9.259 7.61,-9.259l56.381,0c2.998,0 5.246,0.47 6.745,1.409c1.499,0.94 3.17,2.885 5.015,5.837l83.015,134.45c1.614,2.415 2.94,3.555 3.978,3.421c1.038,-0.134 1.557,-1.811 1.557,-5.032l-0,-131.631c-0,-5.636 2.536,-8.454 7.609,-8.454l50.155,0Z" style="fill-rule:nonzero;"/><path d="M1955.23,1072.09c-6.688,-0 -10.031,-4.026 -10.031,-12.077l-0,-276.547c-0,-3.757 0.691,-6.374 2.075,-7.85c1.384,-1.476 3.805,-2.214 7.264,-2.214l72.465,0c7.956,0 14.47,0.135 19.543,0.403c30.9,1.073 56.439,8.051 76.616,20.932c20.177,12.882 35.224,30.258 45.139,52.13c9.916,21.871 14.874,47.03 14.874,75.476c-0,28.715 -5.073,54.411 -15.22,77.087c-10.146,22.677 -25.365,40.456 -45.658,53.337c-20.292,12.882 -45.658,19.323 -76.097,19.323l-90.97,-0Zm73.329,-63.2l2.422,0c14.527,0 26.98,-2.818 37.356,-8.453c10.377,-5.636 18.391,-14.894 24.04,-27.776c5.65,-12.881 8.475,-29.922 8.475,-51.123c-0,-18.785 -2.306,-34.417 -6.918,-46.896c-4.612,-12.479 -11.761,-21.939 -21.446,-28.379c-9.685,-6.441 -22.022,-9.661 -37.011,-9.661l-8.301,-0c-2.306,-0 -3.459,1.878 -3.459,5.635l-0,160.615c-0,4.025 1.614,6.038 4.842,6.038Z" style="fill-rule:nonzero;"/><path d="M2531.68,853.509c-4.151,-5.368 -9.339,-10.332 -15.565,-14.895c-6.226,-4.562 -16.142,-6.843 -29.747,-6.843c-12.914,0 -22.022,2.147 -27.326,6.441c-5.304,4.294 -7.956,8.99 -7.956,14.089c0,2.415 0.634,4.897 1.903,7.447c1.268,2.549 3.516,4.965 6.745,7.246c3.228,2.281 7.725,4.226 13.49,5.837l57.418,17.309c21.676,6.172 37.645,17.175 47.907,33.008c10.261,15.834 15.392,34.082 15.392,54.746c0,19.859 -4.497,37.169 -13.49,51.928c-8.993,14.76 -21.734,26.166 -38.221,34.217c-16.488,8.051 -36.146,12.076 -58.975,12.076c-16.834,-0 -32.803,-2.214 -47.907,-6.642c-15.104,-4.428 -28.306,-10.667 -39.605,-18.718c-11.299,-8.051 -19.716,-17.31 -25.25,-27.776c-1.384,-2.952 -1.96,-5.367 -1.73,-7.246c0.231,-1.878 1.499,-3.891 3.805,-6.038l35.627,-28.58c3.229,-2.416 5.88,-3.422 7.956,-3.019c2.075,0.402 3.805,1.677 5.188,3.824c5.073,7.514 10.147,13.686 15.22,18.517c5.073,4.83 10.895,8.319 17.467,10.466c6.572,2.147 14.355,3.22 23.348,3.22c12.683,0 22.829,-2.012 30.439,-6.038c7.61,-4.025 11.415,-9.795 11.415,-17.309c-0,-3.221 -0.807,-6.24 -2.422,-9.057c-1.614,-2.818 -3.977,-5.301 -7.09,-7.448c-3.113,-2.146 -7.207,-3.891 -12.28,-5.233l-52.576,-14.894c-13.836,-4.025 -25.827,-10.399 -35.973,-19.12c-10.146,-8.722 -17.987,-19.121 -23.521,-31.198c-5.534,-12.076 -8.301,-25.091 -8.301,-39.046c-0,-17.444 4.323,-33.411 12.971,-47.903c8.647,-14.491 20.984,-26.031 37.011,-34.619c16.026,-8.587 34.877,-12.881 56.553,-12.881c13.836,-0 27.038,1.811 39.606,5.434c12.567,3.623 23.809,8.655 33.724,15.096c9.916,6.44 17.526,14.089 22.829,22.945c1.153,1.878 2.018,3.824 2.595,5.837c0.576,2.012 -0.289,4.092 -2.595,6.239l-37.702,31.801c-1.614,1.342 -3.113,1.811 -4.497,1.409c-1.383,-0.403 -3.343,-1.946 -5.88,-4.629Z" style="fill-rule:nonzero;"/><path d="M2735.07,1076.12c-25.366,-0 -47.388,-6.239 -66.067,-18.718c-18.678,-12.479 -33.09,-30.191 -43.236,-53.136c-10.147,-22.945 -15.22,-49.848 -15.22,-80.71c0,-31.13 5.189,-58.235 15.565,-81.314c10.377,-23.079 24.905,-40.992 43.583,-53.739c18.679,-12.747 40.47,-19.121 65.375,-19.121c24.904,-0 46.638,6.374 65.201,19.121c18.563,12.747 32.975,30.66 43.237,53.739c10.261,23.079 15.392,50.184 15.392,81.314c0,30.862 -5.073,57.698 -15.219,80.509c-10.147,22.81 -24.501,40.522 -43.064,53.135c-18.563,12.613 -40.412,18.92 -65.547,18.92Zm-0,-62.797c14.988,0 25.653,-6.709 31.995,-20.127c6.341,-13.418 9.512,-36.229 9.512,-68.432c-0,-33.277 -3.228,-57.161 -9.685,-71.653c-6.457,-14.492 -17.064,-21.737 -31.822,-21.737c-14.989,-0 -25.77,7.245 -32.342,21.737c-6.572,14.492 -9.858,38.376 -9.858,71.653c0,32.203 3.171,55.014 9.512,68.432c6.342,13.418 17.238,20.127 32.688,20.127Z" style="fill-rule:nonzero;"/><path d="M3002.79,769.377c14.527,-0 27.96,2.281 40.296,6.843c12.337,4.562 23.291,11.003 32.861,19.322c9.569,8.319 17.41,18.115 23.52,29.386c6.111,11.271 10.32,23.616 12.626,37.034c1.153,5.636 1.326,9.258 0.518,10.869c-0.807,1.61 -2.478,2.683 -5.015,3.22l-60.532,4.428c-2.536,-0 -4.15,-0.604 -4.842,-1.812c-0.692,-1.207 -1.269,-3.153 -1.73,-5.836c-1.845,-11.808 -5.361,-21.671 -10.55,-29.587c-5.188,-7.917 -13.547,-11.875 -25.077,-11.875c-12.913,-0 -23.233,6.642 -30.958,19.926c-7.725,13.283 -11.587,36.295 -11.587,69.036c-0,33.277 3.516,56.557 10.55,69.841c7.033,13.284 17.583,19.926 31.649,19.926c11.53,-0 21.734,-3.422 30.612,-10.265c8.878,-6.843 16.315,-19.121 22.31,-36.833c1.153,-3.22 4.381,-4.294 9.685,-3.22l43.237,10.064c1.153,0.268 2.421,1.207 3.805,2.817c1.384,1.61 1.729,5.099 1.038,10.466c-0.692,4.294 -2.537,10.198 -5.535,17.712c-2.997,7.514 -7.263,15.632 -12.798,24.354c-5.534,8.722 -12.683,16.907 -21.445,24.555c-8.763,7.649 -19.197,13.955 -31.304,18.92c-12.106,4.965 -26.115,7.447 -42.026,7.447c-24.674,-0 -46.177,-6.776 -64.51,-20.328c-18.332,-13.553 -32.514,-32.204 -42.545,-55.954c-10.031,-23.75 -15.046,-50.788 -15.046,-81.112c-0,-30.325 5.015,-56.625 15.046,-78.899c10.031,-22.274 24.271,-39.583 42.718,-51.928c18.448,-12.345 40.124,-18.517 65.029,-18.517Z" style="fill-rule:nonzero;"/><path d="M3214.82,773.402c4.15,0 6.226,2.818 6.226,8.454l-0,278.56c-0,4.294 -0.923,7.313 -2.767,9.057c-1.845,1.744 -4.728,2.617 -8.648,2.617l-57.764,-0c-3.69,-0 -6.169,-0.806 -7.437,-2.416c-1.268,-1.61 -1.903,-4.159 -1.903,-7.648l0,-279.365c0,-6.172 2.191,-9.259 6.572,-9.259l65.721,0Z" style="fill-rule:nonzero;"/><path d="M3253.91,1072.09c-2.537,-0 -4.382,-1.409 -5.535,-4.227c-1.153,-2.818 -1.037,-6.374 0.346,-10.668l83.707,-274.534c1.153,-3.22 2.421,-5.569 3.805,-7.045c1.384,-1.476 3.574,-2.214 6.572,-2.214l68.141,0c5.996,0 10.147,3.623 12.453,10.869l83.015,274.132c0.922,2.684 0.98,5.636 0.172,8.856c-0.807,3.22 -2.478,4.831 -5.015,4.831l-67.796,-0c-3.92,-0 -6.456,-2.282 -7.609,-6.844l-13.49,-46.292c-0.461,-1.342 -0.98,-2.483 -1.557,-3.422c-0.576,-0.939 -1.787,-1.409 -3.632,-1.409l-73.329,0c-2.768,0 -4.497,1.476 -5.189,4.428l-14.182,47.5c-0.461,1.611 -1.326,3.019 -2.594,4.227c-1.268,1.208 -3.171,1.812 -5.707,1.812l-52.576,-0Zm136.283,-126.399c3.459,-0 4.496,-2.684 3.113,-8.051l-20.754,-68.835c-0.461,-1.342 -1.153,-2.013 -2.075,-2.013c-0.923,0 -1.615,0.671 -2.076,2.013l-21.099,68.433c-1.845,5.635 -0.692,8.453 3.459,8.453l39.432,-0Z" style="fill-rule:nonzero;"/><path d="M3533.39,782.661c0,-6.172 2.191,-9.259 6.572,-9.259l65.721,0c4.15,0 6.226,2.818 6.226,8.454l-0,218.581c-0,3.757 1.383,5.635 4.15,5.635l104.115,0c5.304,0 7.956,2.55 7.956,7.649l-0,49.513c-0,2.415 -0.692,4.495 -2.076,6.239c-1.383,1.744 -3.574,2.617 -6.572,2.617l-176.752,-0c-3.69,-0 -6.169,-0.806 -7.437,-2.416c-1.268,-1.61 -1.903,-4.159 -1.903,-7.648l0,-279.365Z" style="fill-rule:nonzero;"/><path d="M3828.1,773.402c4.151,0 6.226,2.818 6.226,8.454l0,278.56c0,4.294 -0.922,7.313 -2.767,9.057c-1.844,1.744 -4.727,2.617 -8.647,2.617l-57.765,-0c-3.689,-0 -6.168,-0.806 -7.436,-2.416c-1.269,-1.61 -1.903,-4.159 -1.903,-7.648l0,-279.365c0,-6.172 2.191,-9.259 6.572,-9.259l65.72,0Z" style="fill-rule:nonzero;"/><path d="M4023.18,853.509c-4.15,-5.368 -9.339,-10.332 -15.565,-14.895c-6.226,-4.562 -16.142,-6.843 -29.747,-6.843c-12.913,0 -22.022,2.147 -27.326,6.441c-5.303,4.294 -7.955,8.99 -7.955,14.089c-0,2.415 0.634,4.897 1.902,7.447c1.268,2.549 3.517,4.965 6.745,7.246c3.229,2.281 7.725,4.226 13.49,5.837l57.419,17.309c21.676,6.172 37.645,17.175 47.906,33.008c10.262,15.834 15.393,34.082 15.393,54.746c-0,19.859 -4.497,37.169 -13.49,51.928c-8.994,14.76 -21.734,26.166 -38.222,34.217c-16.487,8.051 -36.146,12.076 -58.975,12.076c-16.834,-0 -32.802,-2.214 -47.906,-6.642c-15.105,-4.428 -28.306,-10.667 -39.605,-18.718c-11.3,-8.051 -19.717,-17.31 -25.251,-27.776c-1.383,-2.952 -1.96,-5.367 -1.729,-7.246c0.23,-1.878 1.499,-3.891 3.805,-6.038l35.627,-28.58c3.228,-2.416 5.88,-3.422 7.955,-3.019c2.076,0.402 3.805,1.677 5.189,3.824c5.073,7.514 10.146,13.686 15.219,18.517c5.073,4.83 10.896,8.319 17.468,10.466c6.572,2.147 14.355,3.22 23.348,3.22c12.683,0 22.829,-2.012 30.439,-6.038c7.609,-4.025 11.414,-9.795 11.414,-17.309c0,-3.221 -0.807,-6.24 -2.421,-9.057c-1.614,-2.818 -3.978,-5.301 -7.091,-7.448c-3.113,-2.146 -7.206,-3.891 -12.279,-5.233l-52.576,-14.894c-13.836,-4.025 -25.827,-10.399 -35.973,-19.12c-10.147,-8.722 -17.987,-19.121 -23.521,-31.198c-5.535,-12.076 -8.302,-25.091 -8.302,-39.046c0,-17.444 4.324,-33.411 12.971,-47.903c8.648,-14.491 20.985,-26.031 37.011,-34.619c16.027,-8.587 34.878,-12.881 56.554,-12.881c13.836,-0 27.037,1.811 39.605,5.434c12.568,3.623 23.809,8.655 33.725,15.096c9.915,6.44 17.525,14.089 22.829,22.945c1.153,1.878 2.018,3.824 2.594,5.837c0.577,2.012 -0.288,4.092 -2.594,6.239l-37.703,31.801c-1.614,1.342 -3.113,1.811 -4.496,1.409c-1.384,-0.403 -3.344,-1.946 -5.881,-4.629Z" style="fill-rule:nonzero;"/><path d="M4094.09,782.661c0,-2.684 0.692,-4.898 2.075,-6.642c1.384,-1.744 3.575,-2.617 6.572,-2.617l206.846,0c2.998,0 5.188,0.873 6.572,2.617c1.384,1.744 2.075,3.958 2.075,6.642l0,47.903c0,5.098 -2.536,7.648 -7.609,7.648l-61.224,-0c-2.767,-0 -4.151,1.342 -4.151,4.025l0,220.997c0,5.904 -2.19,8.856 -6.572,8.856l-65.72,-0c-4.151,-0 -6.226,-2.684 -6.226,-8.051l0,-220.192c0,-3.757 -1.268,-5.635 -3.805,-5.635l-60.877,-0c-5.304,-0 -7.956,-2.55 -7.956,-7.648l0,-47.903Z" style="fill-rule:nonzero;"/></g><g id="Trade-Unionist" serif:id="Trade Unionist"><path d="M1396.17,453.899c0,-2.318 0.625,-4.231 1.875,-5.739c1.25,-1.507 3.229,-2.261 5.938,-2.261l186.875,0c2.708,0 4.687,0.754 5.937,2.261c1.25,1.508 1.875,3.421 1.875,5.739l0,41.392c0,4.406 -2.292,6.608 -6.875,6.608l-55.312,0c-2.5,0 -3.75,1.16 -3.75,3.479l-0,190.956c-0,5.101 -1.98,7.652 -5.938,7.652l-59.375,0c-3.75,0 -5.625,-2.319 -5.625,-6.956l0,-190.261c0,-3.246 -1.146,-4.87 -3.437,-4.87l-55,0c-4.792,0 -7.188,-2.202 -7.188,-6.608l0,-41.392Z" style="fill-rule:nonzero;"/><path d="M1826.48,692.856c1.041,3.014 0.989,5.623 -0.157,7.826c-1.145,2.203 -2.968,3.304 -5.468,3.304l-60.625,0c-4.375,0 -7.188,-2.435 -8.438,-7.304l-29.375,-89.739c-1.25,-3.71 -4.479,-5.565 -9.687,-5.565l-14.375,-0c-1.459,-0 -2.448,0.521 -2.969,1.565c-0.521,1.043 -0.781,1.797 -0.781,2.261l-0,88.695c-0,6.725 -3.438,10.087 -10.313,10.087l-52.5,0c-3.125,0 -5.26,-0.696 -6.406,-2.087c-1.146,-1.391 -1.719,-3.594 -1.719,-6.609l0,-241.391c0,-5.333 1.979,-8 5.938,-8l104.375,0c30.208,0 53.645,6.435 70.312,19.305c16.667,12.869 25,31.014 25,54.435c0,10.898 -1.771,20.985 -5.312,30.26c-3.542,9.276 -8.386,17.218 -14.532,23.826c-6.145,6.609 -13.177,11.653 -21.093,15.131c-2.084,0.927 -2.5,3.13 -1.25,6.608l39.375,97.392Zm-95.313,-143.304c7.917,-0 14.011,-2.319 18.281,-6.957c4.271,-4.638 6.407,-10.667 6.407,-18.087c-0,-8.812 -2.657,-15.536 -7.969,-20.174c-5.313,-4.637 -11.511,-6.956 -18.594,-6.956l-27.5,-0c-4.792,-0 -7.187,2.319 -7.187,6.956l-0,37.913c-0,4.87 1.77,7.305 5.312,7.305l31.25,-0Z" style="fill-rule:nonzero;"/><path d="M1842.42,703.986c-2.292,0 -3.958,-1.217 -5,-3.652c-1.042,-2.435 -0.937,-5.507 0.313,-9.217l75.625,-237.218c1.041,-2.782 2.187,-4.811 3.437,-6.086c1.25,-1.276 3.229,-1.914 5.938,-1.914l61.562,0c5.417,0 9.167,3.131 11.25,9.392l75,236.869c0.833,2.319 0.886,4.87 0.156,7.652c-0.729,2.783 -2.239,4.174 -4.531,4.174l-61.25,0c-3.542,0 -5.833,-1.971 -6.875,-5.913l-12.187,-40c-0.417,-1.159 -0.886,-2.145 -1.407,-2.956c-0.52,-0.812 -1.614,-1.218 -3.281,-1.218l-66.25,0c-2.5,0 -4.062,1.276 -4.687,3.826l-12.813,41.044c-0.417,1.391 -1.198,2.608 -2.344,3.652c-1.145,1.043 -2.864,1.565 -5.156,1.565l-47.5,0Zm123.125,-109.217c3.125,-0 4.063,-2.319 2.813,-6.957l-18.75,-59.478c-0.417,-1.159 -1.042,-1.739 -1.875,-1.739c-0.834,0 -1.459,0.58 -1.875,1.739l-19.063,59.13c-1.667,4.87 -0.625,7.305 3.125,7.305l35.625,-0Z" style="fill-rule:nonzero;"/><path d="M2103.98,703.986c-6.042,0 -9.063,-3.478 -9.063,-10.435l0,-238.956c0,-3.246 0.625,-5.507 1.875,-6.782c1.25,-1.276 3.438,-1.914 6.563,-1.914l65.468,0c7.188,0 13.073,0.116 17.657,0.348c27.916,0.928 50.989,6.957 69.218,18.087c18.23,11.131 31.823,26.145 40.782,45.044c8.958,18.898 13.437,40.637 13.437,65.217c0,24.811 -4.583,47.014 -13.75,66.609c-9.167,19.594 -22.917,34.956 -41.25,46.086c-18.333,11.131 -41.25,16.696 -68.75,16.696l-82.187,0Zm66.25,-54.609l2.187,0c13.125,0 24.375,-2.434 33.75,-7.304c9.375,-4.869 16.615,-12.869 21.719,-24c5.104,-11.13 7.656,-25.855 7.656,-44.174c0,-16.232 -2.083,-29.739 -6.25,-40.521c-4.167,-10.783 -10.625,-18.957 -19.375,-24.522c-8.75,-5.565 -19.896,-8.348 -33.437,-8.348l-7.5,0c-2.084,0 -3.125,1.623 -3.125,4.87l-0,138.782c-0,3.478 1.458,5.217 4.375,5.217Z" style="fill-rule:nonzero;"/><path d="M2335.86,453.899c-0,-5.333 1.979,-8 5.937,-8l168.75,0c3.75,0 5.625,2.435 5.625,7.305l0,40.348c0,6.26 -2.708,9.391 -8.125,9.391l-94.062,-0c-4.792,-0 -7.188,2.203 -7.188,6.609l0,29.565c0,4.869 1.875,7.304 5.625,7.304l56.25,0c4.375,0 6.563,2.319 6.563,6.957l-0,43.13c-0,1.623 -0.417,3.014 -1.25,4.174c-0.834,1.159 -2.292,1.739 -4.375,1.739l-57.813,-0c-3.333,-0 -5,1.623 -5,4.87l0,34.782c0,3.246 1.25,4.87 3.75,4.87l101.563,-0c4.583,-0 6.875,2.203 6.875,6.608l-0,42.783c-0,2.087 -0.573,3.884 -1.719,5.391c-1.146,1.507 -3.073,2.261 -5.781,2.261l-167.188,0c-5.625,0 -8.437,-2.898 -8.437,-8.696l-0,-241.391Z" style="fill-rule:nonzero;"/><path d="M2957.29,602.073c-0,26.667 -4.167,47.71 -12.5,63.131c-8.334,15.42 -20,26.318 -35,32.695c-15,6.377 -32.5,9.565 -52.5,9.565c-25,0 -44.792,-4.29 -59.375,-12.869c-14.584,-8.58 -25,-21.276 -31.25,-38.087c-6.25,-16.812 -9.375,-37.275 -9.375,-61.391l-0,-141.218c-0,-5.333 1.979,-8 5.937,-8l59.375,0c3.75,0 5.625,2.435 5.625,7.305l0,150.26c0,17.624 3.073,30.145 9.219,37.566c6.146,7.42 14.531,11.13 25.156,11.13c6.459,0 12.448,-1.449 17.969,-4.348c5.521,-2.898 9.948,-8 13.281,-15.304c3.334,-7.304 5,-17.333 5,-30.087l0,-148.522c0,-5.333 1.979,-8 5.938,-8l46.875,0c3.75,0 5.625,2.435 5.625,7.305l-0,148.869Z" style="fill-rule:nonzero;"/><path d="M3187.92,445.899c3.125,0 4.687,1.971 4.687,5.914l0,245.912c0,1.855 -0.677,3.363 -2.031,4.522c-1.354,1.159 -3.073,1.739 -5.156,1.739l-42.813,0c-1.666,0 -3.073,-0.29 -4.218,-0.87c-1.146,-0.579 -2.553,-2.028 -4.219,-4.347l-85.938,-129.739c-0.833,-1.16 -1.562,-1.623 -2.187,-1.392c-0.625,0.232 -0.938,0.928 -0.938,2.087l0,126.609c0.209,5.101 -2.291,7.652 -7.5,7.652l-42.5,0c-5.208,0 -7.812,-2.319 -7.812,-6.956l-0,-243.131c-0,-5.333 2.291,-8 6.875,-8l50.937,0c2.709,0 4.74,0.406 6.094,1.218c1.354,0.811 2.865,2.493 4.531,5.043l75,116.174c1.459,2.087 2.657,3.073 3.594,2.957c0.938,-0.116 1.406,-1.566 1.406,-4.348l0,-113.739c0,-4.87 2.292,-7.305 6.875,-7.305l45.313,0Z" style="fill-rule:nonzero;"/><path d="M3290.42,445.899c3.75,0 5.625,2.435 5.625,7.305l-0,240.695c-0,3.71 -0.834,6.319 -2.5,7.826c-1.667,1.507 -4.271,2.261 -7.813,2.261l-52.187,0c-3.334,0 -5.573,-0.696 -6.719,-2.087c-1.146,-1.391 -1.719,-3.594 -1.719,-6.609l0,-241.391c0,-5.333 1.979,-8 5.938,-8l59.375,0Z" style="fill-rule:nonzero;"/><path d="M3434.48,707.464c-22.916,0 -42.812,-5.391 -59.687,-16.174c-16.875,-10.782 -29.896,-26.086 -39.063,-45.913c-9.166,-19.826 -13.75,-43.072 -13.75,-69.739c0,-26.898 4.688,-50.318 14.063,-70.26c9.375,-19.942 22.5,-35.421 39.375,-46.435c16.875,-11.015 36.562,-16.522 59.062,-16.522c22.5,0 42.136,5.507 58.907,16.522c16.77,11.014 29.791,26.493 39.062,46.435c9.271,19.942 13.906,43.362 13.906,70.26c0,26.667 -4.583,49.855 -13.75,69.566c-9.166,19.71 -22.135,35.014 -38.906,45.913c-16.771,10.898 -36.51,16.347 -59.219,16.347Zm0,-54.26c13.542,-0 23.177,-5.798 28.907,-17.392c5.729,-11.594 8.593,-31.304 8.593,-59.13c0,-28.754 -2.916,-49.391 -8.75,-61.913c-5.833,-12.522 -15.416,-18.783 -28.75,-18.783c-13.541,0 -23.281,6.261 -29.218,18.783c-5.938,12.522 -8.907,33.159 -8.907,61.913c0,27.826 2.865,47.536 8.594,59.13c5.729,11.594 15.573,17.392 29.531,17.392Z" style="fill-rule:nonzero;"/><path d="M3772.92,445.899c3.125,0 4.687,1.971 4.687,5.914l0,245.912c0,1.855 -0.677,3.363 -2.031,4.522c-1.354,1.159 -3.073,1.739 -5.156,1.739l-42.813,0c-1.666,0 -3.073,-0.29 -4.218,-0.87c-1.146,-0.579 -2.553,-2.028 -4.219,-4.347l-85.938,-129.739c-0.833,-1.16 -1.562,-1.623 -2.187,-1.392c-0.625,0.232 -0.938,0.928 -0.938,2.087l0,126.609c0.209,5.101 -2.291,7.652 -7.5,7.652l-42.5,0c-5.208,0 -7.812,-2.319 -7.812,-6.956l-0,-243.131c-0,-5.333 2.291,-8 6.875,-8l50.937,0c2.709,0 4.74,0.406 6.094,1.218c1.354,0.811 2.865,2.493 4.531,5.043l75,116.174c1.459,2.087 2.657,3.073 3.594,2.957c0.938,-0.116 1.406,-1.566 1.406,-4.348l0,-113.739c0,-4.87 2.292,-7.305 6.875,-7.305l45.313,0Z" style="fill-rule:nonzero;"/><path d="M3875.42,445.899c3.75,0 5.625,2.435 5.625,7.305l-0,240.695c-0,3.71 -0.834,6.319 -2.5,7.826c-1.667,1.507 -4.271,2.261 -7.813,2.261l-52.187,0c-3.334,0 -5.573,-0.696 -6.719,-2.087c-1.146,-1.391 -1.719,-3.594 -1.719,-6.609l0,-241.391c0,-5.333 1.979,-8 5.938,-8l59.375,0Z" style="fill-rule:nonzero;"/><path d="M4051.67,515.117c-3.75,-4.638 -8.438,-8.928 -14.063,-12.87c-5.625,-3.942 -14.583,-5.913 -26.875,-5.913c-11.666,0 -19.896,1.855 -24.687,5.565c-4.792,3.711 -7.188,7.769 -7.188,12.174c0,2.087 0.573,4.232 1.719,6.435c1.146,2.203 3.177,4.29 6.094,6.261c2.916,1.971 6.979,3.652 12.187,5.043l51.875,14.957c19.584,5.333 34.011,14.84 43.282,28.522c9.27,13.681 13.906,29.449 13.906,47.304c-0,17.159 -4.063,32.116 -12.188,44.869c-8.125,12.754 -19.635,22.609 -34.531,29.566c-14.896,6.956 -32.656,10.434 -53.281,10.434c-15.209,0 -29.636,-1.913 -43.281,-5.739c-13.646,-3.826 -25.573,-9.217 -35.782,-16.174c-10.208,-6.956 -17.812,-14.956 -22.812,-24c-1.25,-2.55 -1.771,-4.637 -1.563,-6.261c0.209,-1.623 1.354,-3.362 3.438,-5.217l32.187,-24.696c2.917,-2.086 5.313,-2.956 7.188,-2.608c1.875,0.348 3.437,1.449 4.687,3.304c4.584,6.493 9.167,11.826 13.75,16c4.584,4.174 9.844,7.188 15.782,9.044c5.937,1.855 12.968,2.782 21.093,2.782c11.459,0 20.625,-1.739 27.5,-5.217c6.875,-3.478 10.313,-8.464 10.313,-14.957c-0,-2.782 -0.729,-5.391 -2.188,-7.826c-1.458,-2.435 -3.593,-4.579 -6.406,-6.435c-2.812,-1.855 -6.51,-3.362 -11.094,-4.521l-47.5,-12.87c-12.5,-3.478 -23.333,-8.985 -32.5,-16.522c-9.166,-7.536 -16.25,-16.521 -21.25,-26.956c-5,-10.435 -7.5,-21.681 -7.5,-33.739c0,-15.073 3.907,-28.87 11.719,-41.391c7.813,-12.522 18.958,-22.493 33.438,-29.913c14.479,-7.421 31.51,-11.131 51.093,-11.131c12.5,0 24.427,1.565 35.782,4.696c11.354,3.13 21.51,7.478 30.468,13.043c8.959,5.566 15.834,12.174 20.625,19.826c1.042,1.624 1.823,3.305 2.344,5.044c0.521,1.739 -0.26,3.536 -2.344,5.391l-34.062,27.478c-1.459,1.16 -2.813,1.566 -4.063,1.218c-1.25,-0.348 -3.021,-1.681 -5.312,-4Z" style="fill-rule:nonzero;"/><path d="M4115.73,453.899c0,-2.318 0.625,-4.231 1.875,-5.739c1.25,-1.507 3.229,-2.261 5.938,-2.261l186.875,0c2.708,0 4.687,0.754 5.937,2.261c1.25,1.508 1.875,3.421 1.875,5.739l0,41.392c0,4.406 -2.291,6.608 -6.875,6.608l-55.312,0c-2.5,0 -3.75,1.16 -3.75,3.479l-0,190.956c-0,5.101 -1.979,7.652 -5.938,7.652l-59.375,0c-3.75,0 -5.625,-2.319 -5.625,-6.956l0,-190.261c0,-3.246 -1.146,-4.87 -3.437,-4.87l-55,0c-4.792,0 -7.188,-2.202 -7.188,-6.608l0,-41.392Z" style="fill-rule:nonzero;"/></g><g id="Vote-Welsh" serif:id="Vote Welsh"><path d="M1630.89,80.248c2.916,-0 5.043,1.205 6.38,3.615c1.337,2.41 1.519,5.088 0.547,8.034l-84.584,276.362c-1.701,6.695 -6.198,10.042 -13.489,10.042l-59.063,0c-7.291,0 -11.788,-3.347 -13.489,-10.042l-84.584,-276.362c-0.972,-2.946 -0.79,-5.624 0.547,-8.034c1.337,-2.41 3.464,-3.615 6.38,-3.615l70.365,-0c4.618,-0 7.656,2.811 9.115,8.435l48.854,176.342c1.215,4.017 2.43,3.883 3.646,-0.402l45.572,-175.94c1.216,-5.624 4.375,-8.435 9.48,-8.435l54.323,-0Z" style="fill:#ed0873;fill-rule:nonzero;"/><path d="M1771.25,382.318c-26.736,0 -49.948,-6.226 -69.635,-18.678c-19.688,-12.453 -34.879,-30.127 -45.573,-53.023c-10.695,-22.897 -16.042,-49.743 -16.042,-80.539c0,-31.064 5.469,-58.111 16.406,-81.141c10.938,-23.031 26.25,-40.906 45.938,-53.626c19.687,-12.72 42.656,-19.08 68.906,-19.08c26.25,-0 49.158,6.36 68.724,19.08c19.566,12.72 34.757,30.595 45.573,53.626c10.816,23.03 16.224,50.077 16.224,81.141c-0,30.796 -5.347,57.575 -16.042,80.338c-10.694,22.762 -25.824,40.437 -45.39,53.023c-19.566,12.586 -42.596,18.879 -69.089,18.879Zm0,-62.663c15.799,-0 27.04,-6.695 33.724,-20.085c6.684,-13.39 10.026,-36.152 10.026,-68.287c0,-33.206 -3.403,-57.04 -10.208,-71.501c-6.806,-14.461 -17.986,-21.691 -33.542,-21.691c-15.798,-0 -27.161,7.23 -34.088,21.691c-6.927,14.461 -10.391,38.295 -10.391,71.501c-0,32.135 3.342,54.897 10.026,68.287c6.684,13.39 18.168,20.085 34.453,20.085Z" style="fill:#ed0873;fill-rule:nonzero;"/><path d="M1908.7,89.486c0,-2.678 0.729,-4.887 2.188,-6.627c1.458,-1.741 3.767,-2.611 6.927,-2.611l218.02,-0c3.16,-0 5.469,0.87 6.928,2.611c1.458,1.74 2.187,3.949 2.187,6.627l0,47.801c0,5.089 -2.674,7.633 -8.021,7.633l-64.531,-0c-2.917,-0 -4.375,1.339 -4.375,4.017l-0,220.527c-0,5.892 -2.309,8.837 -6.927,8.837l-69.271,0c-4.375,0 -6.562,-2.678 -6.562,-8.033l-0,-219.725c-0,-3.749 -1.337,-5.623 -4.011,-5.623l-64.167,-0c-5.59,-0 -8.385,-2.544 -8.385,-7.633l0,-47.801Z" style="fill:#ed0873;fill-rule:nonzero;"/><path d="M2174.12,89.486c-0,-6.159 2.309,-9.238 6.927,-9.238l196.875,-0c4.375,-0 6.562,2.811 6.562,8.435l0,46.596c0,7.23 -3.159,10.846 -9.479,10.846l-109.739,-0c-5.591,-0 -8.386,2.544 -8.386,7.632l0,34.143c0,5.624 2.188,8.436 6.563,8.436l65.625,-0c5.104,-0 7.656,2.678 7.656,8.034l-0,49.809c-0,1.875 -0.486,3.482 -1.458,4.82c-0.973,1.339 -2.674,2.009 -5.105,2.009l-67.448,-0c-3.888,-0 -5.833,1.874 -5.833,5.624l0,40.169c0,3.749 1.458,5.623 4.375,5.623l118.49,0c5.347,0 8.021,2.544 8.021,7.632l-0,49.408c-0,2.41 -0.669,4.486 -2.006,6.226c-1.336,1.741 -3.585,2.611 -6.744,2.611l-195.053,0c-6.562,0 -9.843,-3.347 -9.843,-10.042l-0,-278.773Z" style="fill:#ed0873;fill-rule:nonzero;"/><path d="M2764.66,124.107c1.899,2.092 1.899,4.184 -0,6.276l-4.272,4.708l-0,4.707c-18.989,21.967 -45.099,54.919 -78.329,98.853c19.938,30.336 37.028,53.35 51.27,69.041c2.848,3.138 3.323,6.276 1.424,9.414c-1.899,5.231 -4.273,9.415 -7.121,12.553c-0.949,2.092 -2.374,3.138 -4.272,3.138c-2.849,0 -4.748,1.046 -5.697,3.139c-0.95,2.092 -0.95,4.184 -0,6.276c-1.899,4.184 -4.273,7.322 -7.121,9.415c-1.899,3.138 -4.272,3.661 -7.121,1.569c-0.949,-1.046 -1.898,-2.615 -2.848,-4.708c-0.949,-2.092 -2.848,-2.092 -5.697,0c-3.797,4.185 -6.646,7.323 -8.544,9.415c-3.798,3.138 -7.121,3.138 -9.97,0c-4.747,-5.23 -17.564,-25.106 -38.452,-59.626c-23.736,33.474 -40.825,59.103 -51.269,76.886c-3.798,6.277 -7.121,8.369 -9.969,6.277c-0.95,-1.047 -2.374,-2.616 -4.273,-4.708c-1.899,-3.138 -2.373,-5.753 -1.424,-7.845c0.95,-1.046 0.95,-2.092 0,-3.138l-2.848,-0c-2.849,1.046 -5.222,2.092 -7.121,3.138c-6.646,-7.323 -10.444,-12.03 -11.393,-14.122c-2.849,-3.138 -3.323,-6.277 -1.424,-9.415c2.848,-3.138 3.323,-7.322 1.424,-12.553c-1.899,-3.138 -3.323,-6.799 -4.273,-10.983c15.191,-21.968 35.604,-49.165 61.239,-81.594c-22.787,-42.888 -37.503,-76.885 -44.149,-101.991c5.697,-7.323 10.444,-13.599 14.242,-18.829c1.899,3.138 3.323,4.707 4.272,4.707c1.899,1.046 3.323,1.569 4.273,1.569c1.899,0 2.848,-1.046 2.848,-3.138c0.949,-7.323 4.272,-11.507 9.969,-12.553c2.848,0 5.222,1.569 7.121,4.707c14.241,26.152 28.958,50.735 44.149,73.748c34.179,-40.796 62.662,-72.701 85.449,-95.715l12.817,12.553c-0.949,2.092 -1.424,3.661 -1.424,4.707c-0,2.092 0.949,3.661 2.848,4.707c0.95,1.047 3.798,1.047 8.545,0c3.798,4.185 6.172,7.323 7.121,9.415Z" style="fill:#ed0873;fill-rule:nonzero;"/><path d="M3293.75,80.248c4.861,-0 8.203,1.539 10.026,4.619c1.823,3.08 2.127,6.896 0.912,11.448l-74.011,271.944c-2.187,6.695 -6.562,10.042 -13.125,10.042l-50.312,0c-7.049,0 -11.424,-3.347 -13.125,-10.042l-37.917,-141.395c-0.729,-3.213 -1.58,-4.887 -2.552,-5.021c-0.972,-0.134 -2.066,1.808 -3.281,5.825l-37.552,140.591c-1.702,6.695 -6.077,10.042 -13.125,10.042l-52.136,0c-6.562,0 -10.937,-3.347 -13.125,-10.042l-74.375,-271.944c-0.972,-4.552 -0.547,-8.368 1.276,-11.448c1.823,-3.08 5.044,-4.619 9.662,-4.619l60.156,-0c3.889,-0 6.623,0.736 8.203,2.209c1.58,1.473 2.734,3.548 3.464,6.226l38.645,149.027c0.73,2.946 1.52,4.485 2.37,4.619c0.851,0.134 1.519,-0.87 2.005,-3.012l38.282,-150.634c0.486,-2.678 1.58,-4.753 3.281,-6.226c1.701,-1.473 4.497,-2.209 8.385,-2.209l51.042,-0c3.889,-0 6.623,0.736 8.203,2.209c1.58,1.473 2.735,3.548 3.464,6.226l40.104,152.642c0.486,1.607 1.215,2.544 2.187,2.812c0.973,0.268 1.58,-0.402 1.823,-2.008l37.188,-153.446c0.486,-2.678 1.58,-4.753 3.281,-6.226c1.701,-1.473 4.497,-2.209 8.385,-2.209l42.292,-0Z" style="fill-rule:nonzero;"/><path d="M3333.49,89.486c-0,-6.159 2.309,-9.238 6.927,-9.238l196.875,-0c4.375,-0 6.562,2.811 6.562,8.435l0,46.596c0,7.23 -3.159,10.846 -9.479,10.846l-109.739,-0c-5.591,-0 -8.386,2.544 -8.386,7.632l0,34.143c0,5.624 2.188,8.436 6.563,8.436l65.625,-0c5.104,-0 7.656,2.678 7.656,8.034l-0,49.809c-0,1.875 -0.486,3.482 -1.458,4.82c-0.973,1.339 -2.674,2.009 -5.105,2.009l-67.448,-0c-3.888,-0 -5.833,1.874 -5.833,5.624l0,40.169c0,3.749 1.458,5.623 4.375,5.623l118.49,0c5.347,0 8.021,2.544 8.021,7.632l-0,49.408c-0,2.41 -0.669,4.486 -2.006,6.226c-1.336,1.741 -3.585,2.611 -6.744,2.611l-195.053,0c-6.562,0 -9.843,-3.347 -9.843,-10.042l-0,-278.773Z" style="fill-rule:nonzero;"/><path d="M3578.13,89.486c0,-6.159 2.309,-9.238 6.927,-9.238l69.271,-0c4.375,-0 6.563,2.811 6.563,8.435l-0,218.118c-0,3.749 1.458,5.623 4.375,5.623l109.739,0c5.59,0 8.386,2.544 8.386,7.632l-0,49.408c-0,2.41 -0.73,4.486 -2.188,6.226c-1.458,1.741 -3.767,2.611 -6.927,2.611l-186.302,0c-3.889,0 -6.502,-0.803 -7.839,-2.41c-1.336,-1.607 -2.005,-4.151 -2.005,-7.632l0,-278.773Z" style="fill-rule:nonzero;"/><path d="M3973.7,160.184c-4.375,-5.356 -9.844,-10.31 -16.406,-14.863c-6.563,-4.552 -17.014,-6.828 -31.354,-6.828c-13.611,-0 -23.212,2.142 -28.802,6.427c-5.591,4.284 -8.386,8.971 -8.386,14.059c0,2.41 0.669,4.887 2.005,7.431c1.337,2.544 3.707,4.954 7.11,7.23c3.403,2.277 8.142,4.218 14.218,5.825l60.521,17.273c22.848,6.159 39.679,17.138 50.495,32.938c10.816,15.8 16.224,34.01 16.224,54.63c0,19.817 -4.74,37.089 -14.219,51.818c-9.479,14.729 -22.908,26.11 -40.286,34.144c-17.379,8.033 -38.099,12.05 -62.162,12.05c-17.743,0 -34.574,-2.209 -50.494,-6.628c-15.921,-4.418 -29.835,-10.644 -41.745,-18.678c-11.91,-8.034 -20.781,-17.273 -26.615,-27.717c-1.458,-2.946 -2.066,-5.356 -1.823,-7.23c0.243,-1.875 1.58,-3.883 4.011,-6.026l37.552,-28.52c3.403,-2.41 6.198,-3.414 8.385,-3.012c2.188,0.401 4.011,1.673 5.469,3.816c5.347,7.498 10.694,13.657 16.042,18.478c5.347,4.82 11.484,8.301 18.411,10.443c6.927,2.143 15.13,3.214 24.609,3.214c13.369,0 24.063,-2.008 32.084,-6.025c8.021,-4.017 12.031,-9.775 12.031,-17.273c0,-3.214 -0.851,-6.226 -2.552,-9.038c-1.701,-2.812 -4.193,-5.289 -7.474,-7.431c-3.281,-2.143 -7.595,-3.883 -12.943,-5.222l-55.416,-14.863c-14.584,-4.017 -27.223,-10.377 -37.917,-19.08c-10.694,-8.703 -18.958,-19.08 -24.792,-31.131c-5.833,-12.051 -8.75,-25.039 -8.75,-38.964c0,-17.406 4.558,-33.34 13.672,-47.801c9.115,-14.461 22.118,-25.976 39.011,-34.545c16.892,-8.57 36.762,-12.854 59.609,-12.854c14.583,-0 28.498,1.807 41.745,5.422c13.246,3.616 25.095,8.637 35.547,15.064c10.451,6.427 18.472,14.059 24.062,22.896c1.215,1.875 2.127,3.816 2.735,5.825c0.607,2.008 -0.304,4.083 -2.735,6.226l-39.739,31.733c-1.702,1.339 -3.282,1.808 -4.74,1.406c-1.458,-0.401 -3.524,-1.941 -6.198,-4.619Z" style="fill-rule:nonzero;"/><path d="M4156.72,258.999c-3.889,0 -5.833,2.009 -5.833,6.026l-0,101.627c-0,7.766 -4.011,11.649 -12.032,11.649l-60.885,0c-3.889,0 -6.502,-0.803 -7.839,-2.41c-1.336,-1.607 -2.005,-4.151 -2.005,-7.632l0,-278.773c0,-6.159 2.309,-9.238 6.927,-9.238l69.271,-0c4.375,-0 6.563,2.811 6.563,8.435l-0,93.192c-0,5.356 2.187,8.034 6.562,8.034l61.25,-0c4.375,-0 6.563,-2.678 6.563,-8.034l-0,-93.192c-0,-5.624 2.187,-8.435 6.562,-8.435l69.271,-0c4.618,-0 6.927,3.079 6.927,9.238l-0,278.773c-0,3.481 -0.668,6.025 -2.005,7.632c-1.337,1.607 -3.95,2.41 -7.839,2.41l-60.885,0c-8.021,0 -12.031,-3.883 -12.031,-11.649l-0,-101.627c-0,-4.017 -1.945,-6.026 -5.834,-6.026l-62.708,0Z" style="fill-rule:nonzero;"/></g></g></svg>