<?xml version="1.0" encoding="UTF-8" standalone="no"?><!DOCTYPE svg PUBLIC "-//W3C//DTD SVG 1.1//EN" "http://www.w3.org/Graphics/SVG/1.1/DTD/svg11.dtd"><svg width="100%" height="100%" viewBox="0 0 4309 1150" version="1.1" xmlns="http://www.w3.org/2000/svg" xmlns:xlink="http://www.w3.org/1999/xlink" xml:space="preserve" xmlns:serif="http://www.serif.com/" style="fill-rule:evenodd;clip-rule:evenodd;stroke-linejoin:round;stroke-miterlimit:2;"><g id="Footer"><g><rect id="Border" x="-0" y="0" width="1149.92" height="1149.92"/><rect id="Back" x="35.935" y="35.935" width="1078.05" height="1078.05"/><rect id="Inset" x="58.394" y="424.481" width="1035.37" height="300.955" style="fill:#fff;"/><path id="TUSC" d="M56.373,156.276l68.108,0l-0,217.925l66.773,0l0,-217.925l68.104,0l-0,-71.458l-202.985,-0l-0,71.458Zm237.619,98.105c0,20.529 1.114,35.727 3.342,45.592c3.564,15.53 8.437,27.933 14.619,37.208c6.23,9.334 14.03,17.518 23.054,24.189c9.838,7.157 20.91,12.443 32.661,15.594c14.556,3.798 29.563,5.591 44.604,5.329c13.79,0.118 27.532,-1.642 40.847,-5.231c11.731,-3.107 22.799,-8.324 32.662,-15.395c9.157,-6.69 17.097,-14.903 23.472,-24.281c6.597,-9.86 11.273,-20.877 13.781,-32.472c2.784,-12.239 4.176,-28.885 4.178,-49.94l-0,-167.194l-79.187,-0l-0,176.472c-0,16.32 -3.231,28.197 -9.691,35.629c-6.461,7.433 -15.538,11.15 -27.23,11.153c-7.509,0.139 -14.912,-1.804 -21.384,-5.614c-5.825,-3.281 -10.386,-8.423 -12.947,-14.599c-2.396,-5.989 -3.594,-14.839 -3.594,-26.549l0,-176.492l-79.187,-0l0,166.601Zm291.183,96.33c18.866,18.95 52.802,28.424 101.81,28.424c27.908,0 51.034,-4.046 69.379,-12.139c17.488,-7.379 32.401,-19.781 42.846,-35.629c10.085,-15.208 15.422,-33.077 15.33,-51.324c0.196,-15.065 -3.784,-29.893 -11.497,-42.835c-7.666,-12.762 -19.917,-23.455 -36.754,-32.076c-16.837,-8.621 -44.714,-17.142 -83.63,-25.563c-15.721,-3.294 -25.678,-6.847 -29.871,-10.659c-3.943,-2.937 -6.334,-7.522 -6.486,-12.436c-0.014,-6.287 2.893,-12.236 7.861,-16.088c5.241,-4.408 13.037,-6.612 23.389,-6.612c12.577,0 22.437,2.961 29.579,8.883c7.142,5.922 11.826,15.397 14.053,28.424l83.926,-4.941c-3.67,-30.004 -15.169,-51.882 -34.496,-65.635c-19.327,-13.752 -47.401,-20.629 -84.222,-20.629c-30.006,0 -53.624,3.784 -70.855,11.351c-17.23,7.568 -30.135,17.966 -38.715,31.194c-8.351,12.47 -12.83,27.137 -12.869,42.145c-0.525,21.459 8.739,42.032 25.154,55.863c16.638,14.608 44.482,26.32 83.531,35.138c23.847,5.264 39.045,10.856 45.592,16.777c6.548,5.92 9.823,12.632 9.826,20.134c0,7.897 -3.439,14.839 -10.317,20.827c-6.879,5.988 -16.674,8.982 -29.384,8.984c-17.036,-0 -30.137,-5.857 -39.304,-17.57c-5.636,-7.235 -9.37,-17.763 -11.202,-31.582l-84.71,5.329c2.485,29.217 13.164,53.298 32.036,72.245Zm497.929,-193.047c-5.167,-15.082 -13.149,-29.048 -23.521,-41.156c-10.63,-12.166 -24.123,-21.497 -39.257,-27.149c-16.279,-6.252 -33.586,-9.399 -51.023,-9.278c-19.723,-0.252 -39.246,4.001 -57.076,12.436c-14.189,7.139 -26.735,17.16 -36.833,29.421c-11.752,14.279 -20.621,30.704 -26.116,48.362c-6.477,20.083 -9.689,41.077 -9.514,62.178c-0.325,24.449 4.141,48.727 13.146,71.459c6.034,15.094 14.8,28.946 25.857,40.86c11.388,12.101 25.333,21.51 40.818,27.538c16.873,6.639 34.872,9.957 53.004,9.772c17.383,0.352 34.639,-3.049 50.589,-9.97c14.452,-6.543 27.315,-16.14 37.705,-28.128c9.653,-10.646 17.3,-22.952 22.572,-36.321c5.003,-14.479 8.142,-29.536 9.338,-44.809l-79.214,0c-1.383,15.66 -5.823,27.471 -13.318,35.432c-7.496,7.961 -17.584,11.942 -30.266,11.942c-9.267,0.332 -18.398,-2.333 -26.031,-7.598c-6.979,-5.064 -12.427,-12.796 -16.346,-23.196c-3.918,-10.4 -5.881,-25.536 -5.888,-45.408c-0,-28.95 4.583,-49.875 13.749,-62.774c9.167,-12.899 21.015,-19.347 35.544,-19.344c10.86,-0.324 21.354,4.027 28.798,11.941c7.55,7.964 12.018,19.119 13.403,33.465l77.831,-0c-0.995,-13.504 -3.666,-26.831 -7.951,-39.675Z" style="fill:#fff;fill-rule:nonzero;"/><path id="AGAINST" d="M113.114,700.699l5.839,-32.914l51.208,-0l5.94,32.914l51.207,-0l-56.076,-251.349l-52.285,-0l-56.061,251.349l50.228,-0Zm48.063,-84.535l-32.723,0l16.096,-91.29l16.627,91.29Zm209.139,-121.431c-5.856,-16.049 -14.132,-28.752 -24.829,-38.109c-10.26,-9.187 -23.604,-14.196 -37.375,-14.03c-12.557,-0.059 -24.843,3.686 -35.232,10.74c-9.592,6.942 -17.55,15.9 -23.312,26.244c-7.159,12.259 -12.378,25.552 -15.472,39.407c-4.248,19.164 -6.317,38.747 -6.168,58.376c0,27.023 3.346,50.698 10.037,71.023c6.692,20.326 15.597,35.252 26.718,44.777c10.369,9.244 23.798,14.337 37.689,14.293c6.851,0.144 13.645,-1.279 19.863,-4.159c5.431,-2.556 10.272,-6.213 14.217,-10.738c4.06,-5.098 7.565,-10.616 10.454,-16.458l1.986,24.6l32.2,-0l-0,-138.408l-68.162,-0l-0,54.217l21.848,-0c-0.912,7.521 -3.981,14.62 -8.833,20.438c-4.219,5.734 -10.914,9.142 -18.033,9.181c-8.983,0 -16.301,-5.514 -21.953,-16.543c-5.653,-11.029 -8.476,-28.727 -8.47,-53.092c0,-24.946 2.84,-43.138 8.521,-54.576c5.681,-11.438 12.772,-17.154 21.274,-17.148c6.155,0.046 11.938,3.004 15.577,7.969c4.322,5.312 7.391,12.934 9.209,22.866l47.043,-0c-1.228,-13.936 -4.178,-27.666 -8.782,-40.876l-0.015,0.006Zm71.458,205.966l5.84,-32.914l51.207,-0l5.94,32.914l51.208,-0l-56.07,-251.349l-52.285,-0l-56.065,251.349l50.225,-0Zm48.063,-84.535l-32.716,0l16.096,-91.29l16.62,91.29Zm132.476,84.535l0,-251.349l-51.398,-0l0,251.349l51.432,-0l-0.034,-0Zm75.329,-0l-0,-131.306l52.824,131.306l48.937,-0l-0,-251.349l-49.244,-0l-0,134.592l-54.013,-134.594l-47.856,-0l-0,251.351l49.368,-0l-0.016,-0Zm132.249,-20.616c11.038,16.631 30.894,24.946 59.567,24.946c16.331,-0 29.862,-3.552 40.595,-10.655c11.245,-7.732 19.966,-18.609 25.069,-31.265c6.078,-14.23 9.133,-29.568 8.97,-45.04c0.181,-12.845 -2.106,-25.606 -6.737,-37.588c-4.463,-11.171 -11.902,-20.908 -21.505,-28.151c-9.851,-7.563 -26.161,-15.04 -48.93,-22.432c-9.199,-2.884 -15.026,-6.002 -17.48,-9.354c-2.481,-3.093 -3.821,-6.949 -3.794,-10.913c-0.148,-5.096 1.479,-10.088 4.6,-14.118c3.37,-4.006 8.462,-6.165 13.685,-5.801c6.676,-0.308 13.112,2.59 17.307,7.793c4.177,5.197 6.918,13.512 8.222,24.945l49.103,-4.33c-2.147,-26.331 -8.875,-45.53 -20.182,-57.597c-11.308,-12.066 -27.733,-18.1 -49.276,-18.102c-17.557,0 -31.376,3.32 -41.457,9.961c-10.104,6.666 -17.992,16.197 -22.653,27.369c-5.037,11.675 -7.602,24.268 -7.533,36.984c0,19.863 4.907,36.203 14.72,49.021c9.732,12.819 26.024,23.097 48.874,30.835c13.952,4.62 22.844,9.528 26.677,14.722c7.748,10.724 7.631,25.336 -0.288,35.935c-4.077,5.277 -10.497,8.229 -17.158,7.89c-9.968,-0 -17.635,-5.14 -23.001,-15.419c-3.294,-6.348 -5.479,-15.586 -6.554,-27.714l-49.563,4.676c1.451,25.638 7.697,46.772 18.738,63.402l-0.016,0Zm141.112,-164.561l37.375,-0l-0,185.177l41.293,-0l0,-185.177l37.375,-0l-0,-66.172l-116.027,-0l-0,66.172l-0.016,-0Z" style="fill-rule:nonzero;"/><path id="CUTS" d="M617.855,845.777l68.104,-0l-0,217.925l66.773,-0l0,-217.925l68.104,-0l-0,-71.459l-202.981,-0l0,71.459Zm-263.223,95.858c0,20.531 1.114,35.729 3.342,45.593c3.564,15.531 8.437,27.934 14.619,37.208c6.23,9.334 14.031,17.518 23.054,24.189c9.839,7.156 20.91,12.442 32.661,15.593c14.556,3.798 29.563,5.592 44.604,5.33c13.79,0.118 27.532,-1.642 40.847,-5.231c11.731,-3.107 22.799,-8.324 32.662,-15.396c9.157,-6.689 17.097,-14.902 23.472,-24.281c6.597,-9.859 11.273,-20.877 13.781,-32.471c2.784,-12.238 4.176,-28.884 4.178,-49.941l-0,-167.194l-79.187,0l-0,176.472c-0,16.321 -3.23,28.197 -9.691,35.63c-6.461,7.432 -15.538,11.15 -27.23,11.153c-7.509,0.139 -14.911,-1.805 -21.383,-5.615c-5.826,-3.281 -10.387,-8.423 -12.948,-14.599c-2.396,-5.989 -3.594,-14.838 -3.594,-26.549l0,-176.492l-79.187,0l0,166.601Zm509.038,98.576c18.866,18.95 52.803,28.425 101.81,28.425c27.908,-0 51.035,-4.047 69.379,-12.139c17.488,-7.38 32.401,-19.781 42.846,-35.63c10.085,-15.207 15.422,-33.076 15.331,-51.324c0.196,-15.064 -3.784,-29.893 -11.497,-42.834c-7.666,-12.763 -19.918,-23.455 -36.755,-32.077c-16.837,-8.621 -44.713,-17.142 -83.629,-25.563c-15.722,-3.294 -25.679,-6.847 -29.871,-10.659c-3.943,-2.937 -6.334,-7.521 -6.486,-12.436c-0.015,-6.287 2.892,-12.237 7.86,-16.089c5.241,-4.407 13.037,-6.611 23.389,-6.612c12.578,-0 22.437,2.96 29.579,8.882c7.142,5.922 11.827,15.397 14.053,28.425l83.926,-4.941c-3.67,-30.003 -15.168,-51.881 -34.495,-65.633c-19.327,-13.753 -47.401,-20.629 -84.223,-20.629c-30.005,-0 -53.623,3.784 -70.854,11.351c-17.231,7.567 -30.136,17.965 -38.716,31.194c-8.352,12.469 -12.832,27.136 -12.873,42.144c-0.525,21.459 8.739,42.032 25.154,55.863c16.638,14.608 44.482,26.321 83.531,35.138c23.847,5.265 39.045,10.857 45.592,16.777c6.548,5.92 9.823,12.632 9.826,20.135c0,7.897 -3.439,14.839 -10.318,20.826c-6.878,5.988 -16.673,8.983 -29.383,8.984c-17.036,0 -30.138,-5.856 -39.304,-17.57c-5.636,-7.235 -9.37,-17.762 -11.203,-31.582l-84.709,5.33c2.49,29.216 13.17,53.298 32.04,72.244Zm-564.395,-188.554c-5.168,-15.083 -13.15,-29.049 -23.522,-41.157c-10.629,-12.166 -24.122,-21.497 -39.257,-27.149c-16.277,-6.252 -33.584,-9.399 -51.02,-9.278c-19.723,-0.252 -39.246,4.002 -57.076,12.436c-14.19,7.139 -26.735,17.16 -36.833,29.422c-11.754,14.278 -20.624,30.703 -26.118,48.361c-6.481,20.08 -9.697,41.071 -9.525,62.17c-0.326,24.449 4.14,48.726 13.145,71.459c6.034,15.093 14.8,28.945 25.857,40.86c11.388,12.101 25.334,21.509 40.818,27.537c16.874,6.64 34.872,9.958 53.004,9.772c17.383,0.352 34.64,-3.048 50.59,-9.97c14.451,-6.543 27.315,-16.14 37.704,-28.128c9.653,-10.646 17.3,-22.952 22.572,-36.321c5.004,-14.478 8.142,-29.536 9.338,-44.808l-79.214,-0c-1.383,15.661 -5.823,27.472 -13.318,35.431c-7.495,7.96 -17.585,11.941 -30.268,11.942c-9.267,0.332 -18.398,-2.333 -26.031,-7.598c-6.977,-5.064 -12.425,-12.796 -16.343,-23.196c-3.919,-10.4 -5.878,-25.533 -5.878,-45.399c0,-28.95 4.583,-49.875 13.75,-62.774c9.166,-12.899 21.013,-19.347 35.542,-19.344c10.86,-0.323 21.353,4.028 28.797,11.942c7.551,7.964 12.019,19.118 13.404,33.464l77.83,-0c-0.996,-13.504 -3.668,-26.832 -7.955,-39.677l0.007,0.003Z" style="fill:#fff;fill-rule:nonzero;"/></g><g><path d="M1520.45,856.43c-3.165,-5.297 -7.122,-10.197 -11.87,-14.699c-4.748,-4.502 -12.31,-6.753 -22.685,-6.753c-9.848,-0 -16.794,2.118 -20.839,6.356c-4.044,4.237 -6.067,8.872 -6.067,13.904c0,2.384 0.484,4.833 1.451,7.349c0.967,2.516 2.682,4.9 5.144,7.151c2.462,2.251 5.891,4.171 10.287,5.76l43.788,17.083c16.53,6.091 28.708,16.949 36.533,32.575c7.826,15.626 11.738,33.635 11.738,54.027c0,19.599 -3.429,36.681 -10.287,51.247c-6.858,14.566 -16.574,25.822 -29.148,33.767c-12.573,7.945 -27.565,11.918 -44.974,11.918c-12.837,-0 -25.015,-2.185 -36.534,-6.555c-11.518,-4.37 -21.586,-10.527 -30.202,-18.472c-8.617,-7.946 -15.036,-17.083 -19.256,-27.411c-1.055,-2.914 -1.495,-5.297 -1.319,-7.151c0.176,-1.854 1.143,-3.84 2.901,-5.959l27.17,-28.206c2.462,-2.383 4.484,-3.376 6.067,-2.979c1.582,0.397 2.901,1.655 3.956,3.774c3.869,7.415 7.738,13.507 11.607,18.274c3.868,4.767 8.309,8.21 13.32,10.329c5.012,2.118 10.947,3.178 17.806,3.178c9.672,-0 17.409,-1.986 23.212,-5.959c5.803,-3.973 8.705,-9.667 8.705,-17.082c-0,-3.178 -0.616,-6.158 -1.846,-8.939c-1.231,-2.78 -3.034,-5.23 -5.408,-7.349c-2.374,-2.119 -5.495,-3.84 -9.364,-5.164l-40.095,-14.699c-10.551,-3.973 -19.695,-10.263 -27.433,-18.87c-7.737,-8.607 -13.716,-18.87 -17.937,-30.788c-4.22,-11.917 -6.331,-24.762 -6.331,-38.534c0,-17.214 3.298,-32.972 9.892,-47.274c6.595,-14.301 16.003,-25.689 28.225,-34.164c12.221,-8.475 26.597,-12.713 43.128,-12.713c10.551,0 20.618,1.788 30.202,5.363c9.584,3.576 18.157,8.542 25.719,14.898c7.562,6.356 13.365,13.904 17.409,22.644c0.88,1.853 1.539,3.774 1.979,5.76c0.439,1.986 -0.22,4.039 -1.979,6.157l-28.752,31.384c-1.231,1.324 -2.374,1.788 -3.429,1.39c-1.055,-0.397 -2.55,-1.92 -4.484,-4.568Z" style="fill-rule:nonzero;"/><path d="M1675.55,1076.12c-19.344,-0 -36.138,-6.158 -50.382,-18.473c-14.244,-12.315 -25.235,-29.794 -32.973,-52.438c-7.737,-22.644 -11.606,-49.194 -11.606,-79.651c-0,-30.721 3.957,-57.47 11.87,-80.246c7.913,-22.777 18.992,-40.455 33.236,-53.035c14.244,-12.58 30.862,-18.87 49.855,-18.87c18.992,0 35.566,6.29 49.722,18.87c14.156,12.58 25.147,30.258 32.973,53.035c7.825,22.776 11.738,49.525 11.738,80.246c-0,30.457 -3.869,56.941 -11.607,79.452c-7.737,22.512 -18.684,39.991 -32.84,52.439c-14.156,12.447 -30.818,18.671 -49.986,18.671Zm-0,-61.973c11.43,0 19.563,-6.621 24.399,-19.863c4.836,-13.242 7.254,-35.753 7.254,-67.534c0,-32.84 -2.462,-56.411 -7.386,-70.712c-4.924,-14.302 -13.013,-21.452 -24.267,-21.452c-11.431,-0 -19.652,7.15 -24.664,21.452c-5.012,14.301 -7.518,37.872 -7.518,70.712c0,31.781 2.418,54.292 7.254,67.534c4.836,13.242 13.145,19.863 24.928,19.863Z" style="fill-rule:nonzero;"/><path d="M1903.19,856.43c-3.165,-5.297 -7.122,-10.197 -11.87,-14.699c-4.748,-4.502 -12.309,-6.753 -22.685,-6.753c-9.847,-0 -16.794,2.118 -20.838,6.356c-4.045,4.237 -6.067,8.872 -6.067,13.904c-0,2.384 0.483,4.833 1.451,7.349c0.967,2.516 2.681,4.9 5.143,7.151c2.462,2.251 5.891,4.171 10.288,5.76l43.787,17.083c16.53,6.091 28.708,16.949 36.534,32.575c7.825,15.626 11.738,33.635 11.738,54.027c-0,19.599 -3.429,36.681 -10.288,51.247c-6.858,14.566 -16.574,25.822 -29.147,33.767c-12.574,7.945 -27.565,11.918 -44.975,11.918c-12.837,-0 -25.015,-2.185 -36.533,-6.555c-11.519,-4.37 -21.586,-10.527 -30.203,-18.472c-8.617,-7.946 -15.035,-17.083 -19.256,-27.411c-1.055,-2.914 -1.495,-5.297 -1.319,-7.151c0.176,-1.854 1.143,-3.84 2.902,-5.959l27.169,-28.206c2.462,-2.383 4.484,-3.376 6.067,-2.979c1.583,0.397 2.902,1.655 3.957,3.774c3.869,7.415 7.737,13.507 11.606,18.274c3.869,4.767 8.309,8.21 13.321,10.329c5.012,2.118 10.947,3.178 17.805,3.178c9.672,-0 17.41,-1.986 23.213,-5.959c5.803,-3.973 8.704,-9.667 8.704,-17.082c0,-3.178 -0.615,-6.158 -1.846,-8.939c-1.231,-2.78 -3.034,-5.23 -5.408,-7.349c-2.374,-2.119 -5.495,-3.84 -9.364,-5.164l-40.094,-14.699c-10.551,-3.973 -19.696,-10.263 -27.433,-18.87c-7.738,-8.607 -13.717,-18.87 -17.937,-30.788c-4.221,-11.917 -6.331,-24.762 -6.331,-38.534c-0,-17.214 3.297,-32.972 9.892,-47.274c6.594,-14.301 16.002,-25.689 28.224,-34.164c12.222,-8.475 26.598,-12.713 43.128,-12.713c10.551,0 20.619,1.788 30.203,5.363c9.584,3.576 18.157,8.542 25.718,14.898c7.562,6.356 13.365,13.904 17.41,22.644c0.879,1.853 1.539,3.774 1.978,5.76c0.44,1.986 -0.22,4.039 -1.978,6.157l-28.752,31.384c-1.231,1.324 -2.374,1.788 -3.429,1.39c-1.055,-0.397 -2.55,-1.92 -4.485,-4.568Z" style="fill-rule:nonzero;"/><path d="M2026.64,777.375c3.166,-0 4.748,2.781 4.748,8.342l0,274.905c0,4.237 -0.703,7.217 -2.11,8.938c-1.407,1.722 -3.605,2.582 -6.594,2.582l-44.051,0c-2.814,0 -4.705,-0.794 -5.672,-2.383c-0.967,-1.589 -1.451,-4.105 -1.451,-7.548l0,-275.699c0,-6.091 1.671,-9.137 5.012,-9.137l50.118,-0Z" style="fill-rule:nonzero;"/><path d="M2056.45,1072.14c-1.935,0 -3.342,-1.39 -4.221,-4.171c-0.879,-2.781 -0.791,-6.29 0.264,-10.527l63.835,-270.932c0.879,-3.178 1.846,-5.495 2.901,-6.952c1.055,-1.457 2.726,-2.185 5.012,-2.185l51.965,-0c4.572,-0 7.737,3.575 9.496,10.726l63.307,270.534c0.703,2.649 0.747,5.562 0.132,8.74c-0.616,3.178 -1.891,4.767 -3.825,4.767l-51.701,0c-2.989,0 -4.924,-2.251 -5.803,-6.753l-10.288,-45.685c-0.351,-1.324 -0.747,-2.45 -1.187,-3.377c-0.439,-0.927 -1.362,-1.39 -2.769,-1.39l-55.922,-0c-2.11,-0 -3.429,1.456 -3.956,4.37l-10.815,46.876c-0.352,1.589 -1.011,2.98 -1.979,4.172c-0.967,1.191 -2.418,1.787 -4.352,1.787l-40.094,0Zm103.929,-124.739c2.638,-0 3.429,-2.649 2.374,-7.946l-15.827,-67.931c-0.352,-1.324 -0.879,-1.987 -1.583,-1.987c-0.703,0 -1.231,0.663 -1.582,1.987l-16.091,67.534c-1.407,5.562 -0.527,8.343 2.638,8.343l30.071,-0Z" style="fill-rule:nonzero;"/><path d="M2269.58,786.512c-0,-6.091 1.67,-9.137 5.011,-9.137l50.119,-0c3.165,-0 4.748,2.781 4.748,8.342l-0,215.713c-0,3.708 1.055,5.562 3.165,5.562l79.398,-0c4.044,-0 6.067,2.516 6.067,7.548l-0,48.863c-0,2.383 -0.528,4.436 -1.583,6.157c-1.055,1.722 -2.726,2.582 -5.012,2.582l-134.791,0c-2.814,0 -4.704,-0.794 -5.672,-2.383c-0.967,-1.589 -1.45,-4.105 -1.45,-7.548l-0,-275.699Z" style="fill-rule:nonzero;"/><path d="M2679.23,777.375c3.517,-0 5.935,1.523 7.254,4.568c1.318,3.046 1.538,6.82 0.659,11.322l-53.547,268.946c-1.583,6.621 -4.748,9.931 -9.496,9.931l-36.402,0c-5.1,0 -8.265,-3.31 -9.496,-9.931l-27.433,-139.836c-0.528,-3.178 -1.143,-4.833 -1.847,-4.966c-0.703,-0.132 -1.494,1.788 -2.374,5.761l-27.169,139.041c-1.231,6.621 -4.396,9.931 -9.496,9.931l-37.721,0c-4.748,0 -7.913,-3.31 -9.496,-9.931l-53.811,-268.946c-0.703,-4.502 -0.395,-8.276 0.924,-11.322c1.318,-3.045 3.648,-4.568 6.99,-4.568l43.523,-0c2.814,-0 4.792,0.728 5.935,2.185c1.143,1.457 1.979,3.509 2.506,6.157l27.961,147.384c0.528,2.913 1.099,4.436 1.715,4.569c0.615,0.132 1.099,-0.861 1.45,-2.98l27.697,-148.973c0.352,-2.648 1.143,-4.7 2.374,-6.157c1.231,-1.457 3.254,-2.185 6.067,-2.185l36.929,-0c2.814,-0 4.792,0.728 5.935,2.185c1.143,1.457 1.979,3.509 2.506,6.157l29.016,150.959c0.352,1.59 0.879,2.516 1.583,2.781c0.703,0.265 1.143,-0.397 1.319,-1.986l26.905,-151.754c0.352,-2.648 1.143,-4.7 2.374,-6.157c1.231,-1.457 3.253,-2.185 6.067,-2.185l30.599,-0Z" style="fill-rule:nonzero;"/><path d="M2882.34,777.375c2.286,-0 3.737,0.861 4.352,2.582c0.616,1.722 0.396,3.907 -0.659,6.555l-61.725,150.164c-1.231,2.649 -1.978,5.562 -2.242,8.74c-0.263,3.178 -0.395,9.005 -0.395,17.48l-0,97.726c-0,7.68 -2.902,11.52 -8.705,11.52l-44.315,0c-2.638,0 -4.44,-0.794 -5.408,-2.383c-0.967,-1.589 -1.45,-4.105 -1.45,-7.548l-0,-104.48c-0,-4.237 -0.308,-7.481 -0.924,-9.733c-0.615,-2.251 -1.538,-4.833 -2.769,-7.746l-61.725,-151.754c-1.231,-3.178 -1.451,-5.826 -0.659,-7.945c0.791,-2.119 2.594,-3.178 5.407,-3.178l53.02,-0c2.638,-0 4.484,0.596 5.539,1.788c1.056,1.191 2.199,3.376 3.43,6.554l32.444,88.192c0.88,2.384 1.627,3.642 2.243,3.774c0.615,0.133 1.362,-0.993 2.242,-3.376l31.917,-88.59c1.055,-3.442 2.198,-5.694 3.429,-6.753c1.231,-1.059 3.078,-1.589 5.54,-1.589l41.413,-0Z" style="fill-rule:nonzero;"/><path d="M3078.07,1059.43c0.879,3.443 0.835,6.422 -0.132,8.938c-0.967,2.516 -2.506,3.774 -4.616,3.774l-51.174,0c-3.693,0 -6.067,-2.78 -7.122,-8.342l-24.795,-102.493c-1.055,-4.238 -3.781,-6.357 -8.177,-6.357l-12.134,0c-1.231,0 -2.066,0.596 -2.506,1.788c-0.44,1.192 -0.659,2.053 -0.659,2.582l-0,101.302c-0,7.68 -2.902,11.52 -8.705,11.52l-44.315,0c-2.638,0 -4.44,-0.794 -5.408,-2.383c-0.967,-1.589 -1.45,-4.105 -1.45,-7.548l-0,-275.699c-0,-6.091 1.67,-9.137 5.011,-9.137l88.103,-0c25.498,-0 45.282,7.349 59.35,22.048c14.068,14.699 21.103,35.422 21.103,62.171c-0,12.448 -1.495,23.968 -4.485,34.562c-2.989,10.594 -7.078,19.664 -12.265,27.212c-5.188,7.548 -11.123,13.308 -17.806,17.281c-1.758,1.059 -2.11,3.575 -1.055,7.548l33.237,111.233Zm-80.453,-163.671c6.682,-0 11.826,-2.649 15.431,-7.946c3.605,-5.296 5.407,-12.182 5.407,-20.657c0,-10.064 -2.242,-17.744 -6.726,-23.041c-4.484,-5.297 -9.716,-7.945 -15.695,-7.945l-23.213,-0c-4.044,-0 -6.066,2.648 -6.066,7.945l-0,43.301c-0,5.562 1.494,8.343 4.484,8.343l26.378,-0Z" style="fill-rule:nonzero;"/><path d="M3391.12,773.402c11.078,0 21.322,2.252 30.73,6.754c9.408,4.502 17.761,10.858 25.059,19.068c7.298,8.21 13.277,17.877 17.937,29c4.66,11.124 7.869,23.306 9.628,36.548c0.879,5.562 1.011,9.137 0.396,10.726c-0.616,1.589 -1.891,2.649 -3.825,3.178l-46.162,4.37c-1.934,0 -3.165,-0.596 -3.693,-1.787c-0.527,-1.192 -0.967,-3.112 -1.318,-5.761c-1.407,-11.653 -4.089,-21.386 -8.046,-29.198c-3.956,-7.813 -10.331,-11.719 -19.124,-11.719c-9.848,-0 -17.717,6.554 -23.608,19.664c-5.891,13.11 -8.837,35.82 -8.837,68.13c0,32.84 2.682,55.815 8.046,68.925c5.363,13.109 13.408,19.664 24.135,19.664c8.793,0 16.575,-3.377 23.345,-10.13c6.77,-6.753 12.442,-18.87 17.014,-36.349c0.879,-3.178 3.341,-4.238 7.386,-3.178l32.972,9.931c0.879,0.265 1.846,1.192 2.902,2.781c1.055,1.589 1.318,5.032 0.791,10.329c-0.528,4.237 -1.934,10.064 -4.221,17.479c-2.286,7.416 -5.539,15.427 -9.759,24.034c-4.221,8.608 -9.672,16.685 -16.355,24.233c-6.682,7.548 -14.64,13.772 -23.872,18.672c-9.232,4.899 -19.915,7.349 -32.049,7.349c-18.816,-0 -35.215,-6.687 -49.195,-20.062c-13.98,-13.374 -24.795,-31.781 -32.445,-55.219c-7.65,-23.438 -11.474,-50.121 -11.474,-80.048c-0,-29.927 3.824,-55.881 11.474,-77.863c7.65,-21.982 18.509,-39.064 32.577,-51.247c14.068,-12.182 30.598,-18.274 49.591,-18.274Z" style="fill-rule:nonzero;"/><path d="M3664.14,777.375c2.286,-0 3.736,0.861 4.352,2.582c0.615,1.722 0.396,3.907 -0.66,6.555l-61.724,150.164c-1.231,2.649 -1.978,5.562 -2.242,8.74c-0.264,3.178 -0.396,9.005 -0.396,17.48l0,97.726c0,7.68 -2.901,11.52 -8.705,11.52l-44.315,0c-2.637,0 -4.44,-0.794 -5.407,-2.383c-0.967,-1.589 -1.451,-4.105 -1.451,-7.548l0,-104.48c0,-4.237 -0.308,-7.481 -0.923,-9.733c-0.615,-2.251 -1.539,-4.833 -2.77,-7.746l-61.724,-151.754c-1.231,-3.178 -1.451,-5.826 -0.66,-7.945c0.792,-2.119 2.594,-3.178 5.408,-3.178l53.02,-0c2.637,-0 4.484,0.596 5.539,1.788c1.055,1.191 2.198,3.376 3.429,6.554l32.445,88.192c0.879,2.384 1.627,3.642 2.242,3.774c0.616,0.133 1.363,-0.993 2.242,-3.376l31.918,-88.59c1.055,-3.442 2.198,-5.694 3.429,-6.753c1.231,-1.059 3.077,-1.589 5.539,-1.589l41.414,-0Z" style="fill-rule:nonzero;"/><path d="M3695.53,1072.14c-4.572,0 -6.858,-3.707 -6.858,-11.123l0,-274.507c0,-6.091 1.847,-9.137 5.539,-9.137l73.859,-0c2.286,-0 3.913,0.463 4.88,1.39c0.967,0.927 1.802,2.847 2.506,5.761l27.433,126.329c0.527,2.118 1.143,3.111 1.846,2.979c0.704,-0.132 1.231,-1.126 1.583,-2.979l24.531,-121.959c1.407,-7.681 3.781,-11.521 7.122,-11.521l76.233,-0c3.165,-0 4.748,2.781 4.748,8.342l-0,274.905c-0,7.68 -2.814,11.52 -8.441,11.52l-44.579,0c-2.638,0 -4.44,-0.794 -5.407,-2.383c-0.968,-1.589 -1.451,-4.105 -1.451,-7.548l-0,-178.37c-0,-2.119 -0.396,-3.178 -1.187,-3.178c-0.792,-0 -1.451,1.192 -1.979,3.575l-37.984,180.754c-1.231,4.767 -3.341,7.15 -6.331,7.15l-27.696,0c-3.166,0 -5.276,-2.383 -6.331,-7.15l-37.984,-177.576c-0.704,-3.178 -1.407,-4.568 -2.111,-4.171c-0.703,0.397 -1.055,1.92 -1.055,4.568l0,175.59c0,3.443 -0.351,5.76 -1.055,6.952c-0.703,1.191 -2.286,1.787 -4.748,1.787l-35.083,0Z" style="fill-rule:nonzero;"/><path d="M4117.57,1059.43c0.879,3.443 0.835,6.422 -0.132,8.938c-0.967,2.516 -2.506,3.774 -4.616,3.774l-51.173,0c-3.693,0 -6.067,-2.78 -7.122,-8.342l-24.796,-102.493c-1.055,-4.238 -3.781,-6.357 -8.177,-6.357l-12.134,0c-1.231,0 -2.066,0.596 -2.506,1.788c-0.439,1.192 -0.659,2.053 -0.659,2.582l-0,101.302c-0,7.68 -2.902,11.52 -8.705,11.52l-44.315,0c-2.638,0 -4.44,-0.794 -5.407,-2.383c-0.967,-1.589 -1.451,-4.105 -1.451,-7.548l-0,-275.699c-0,-6.091 1.671,-9.137 5.012,-9.137l88.102,-0c25.499,-0 45.282,7.349 59.351,22.048c14.068,14.699 21.102,35.422 21.102,62.171c0,12.448 -1.495,23.968 -4.484,34.562c-2.99,10.594 -7.078,19.664 -12.266,27.212c-5.188,7.548 -11.123,13.308 -17.805,17.281c-1.759,1.059 -2.11,3.575 -1.055,7.548l33.236,111.233Zm-80.453,-163.671c6.683,-0 11.826,-2.649 15.431,-7.946c3.605,-5.296 5.408,-12.182 5.408,-20.657c-0,-10.064 -2.242,-17.744 -6.727,-23.041c-4.484,-5.297 -9.715,-7.945 -15.695,-7.945l-23.212,-0c-4.045,-0 -6.067,2.648 -6.067,7.945l-0,43.301c-0,5.562 1.495,8.343 4.484,8.343l26.378,-0Z" style="fill-rule:nonzero;"/><path d="M4308.02,955.745c-0,30.457 -3.517,54.491 -10.551,72.103c-7.034,17.612 -16.882,30.059 -29.544,37.342c-12.661,7.283 -27.433,10.925 -44.315,10.925c-21.102,-0 -37.808,-4.9 -50.118,-14.699c-12.309,-9.799 -21.102,-24.299 -26.378,-43.5c-5.275,-19.201 -7.913,-42.573 -7.913,-70.116l-0,-161.288c-0,-6.091 1.671,-9.137 5.012,-9.137l50.118,-0c3.165,-0 4.748,2.781 4.748,8.342l-0,171.617c-0,20.128 2.594,34.429 7.781,42.904c5.188,8.475 12.266,12.713 21.235,12.713c5.451,-0 10.507,-1.656 15.167,-4.966c4.66,-3.311 8.397,-9.137 11.211,-17.48c2.813,-8.342 4.22,-19.797 4.22,-34.363l0,-169.63c0,-6.091 1.671,-9.137 5.012,-9.137l39.567,-0c3.165,-0 4.748,2.781 4.748,8.342l-0,170.028Z" style="fill-rule:nonzero;"/></g><g><path d="M1546.62,602.073c0,26.667 -3.134,47.71 -9.403,63.131c-6.269,15.42 -15.045,26.318 -26.329,32.695c-11.283,6.377 -24.448,9.565 -39.493,9.565c-18.806,0 -33.694,-4.29 -44.665,-12.869c-10.97,-8.58 -18.806,-21.276 -23.508,-38.087c-4.701,-16.812 -7.052,-37.275 -7.052,-61.391l0,-141.218c0,-5.333 1.489,-8 4.467,-8l44.664,0c2.821,0 4.232,2.435 4.232,7.305l-0,150.26c-0,17.624 2.311,30.145 6.935,37.566c4.623,7.42 10.931,11.13 18.923,11.13c4.859,0 9.364,-1.449 13.517,-4.348c4.154,-2.898 7.484,-8 9.991,-15.304c2.508,-7.304 3.762,-17.333 3.762,-30.087l-0,-148.522c-0,-5.333 1.488,-8 4.466,-8l35.262,0c2.821,0 4.231,2.435 4.231,7.305l0,148.869Z" style="fill-rule:nonzero;"/><path d="M1720.11,445.899c2.351,0 3.526,1.971 3.526,5.914l0,245.912c0,1.855 -0.509,3.363 -1.528,4.522c-1.019,1.159 -2.311,1.739 -3.879,1.739l-32.205,0c-1.254,0 -2.312,-0.29 -3.174,-0.87c-0.862,-0.579 -1.92,-2.028 -3.174,-4.347l-64.646,-129.739c-0.627,-1.16 -1.175,-1.623 -1.646,-1.392c-0.47,0.232 -0.705,0.928 -0.705,2.087l0,126.609c0.157,5.101 -1.724,7.652 -5.642,7.652l-31.97,0c-3.918,0 -5.877,-2.319 -5.877,-6.956l-0,-243.131c-0,-5.333 1.724,-8 5.171,-8l38.318,0c2.038,0 3.566,0.406 4.584,1.218c1.019,0.811 2.155,2.493 3.409,5.043l56.419,116.174c1.097,2.087 1.998,3.073 2.703,2.957c0.705,-0.116 1.058,-1.566 1.058,-4.348l-0,-113.739c-0,-4.87 1.724,-7.305 5.172,-7.305l34.086,0Z" style="fill-rule:nonzero;"/><path d="M1754.9,703.986c-4.545,0 -6.818,-3.478 -6.818,-10.435l0,-238.956c0,-3.246 0.47,-5.507 1.411,-6.782c0.94,-1.276 2.586,-1.914 4.936,-1.914l49.249,0c5.407,0 9.834,0.116 13.282,0.348c21.001,0.928 38.357,6.957 52.07,18.087c13.713,11.131 23.939,26.145 30.678,45.044c6.739,18.898 10.108,40.637 10.108,65.217c0,24.811 -3.448,47.014 -10.343,66.609c-6.896,19.594 -17.239,34.956 -31.031,46.086c-13.791,11.131 -31.03,16.696 -51.717,16.696l-61.825,0Zm49.836,-54.609l1.646,0c9.873,0 18.336,-2.434 25.388,-7.304c7.052,-4.869 12.498,-12.869 16.338,-24c3.84,-11.13 5.759,-25.855 5.759,-44.174c0,-16.232 -1.567,-29.739 -4.701,-40.521c-3.134,-10.783 -7.993,-18.957 -14.575,-24.522c-6.582,-5.565 -14.967,-8.348 -25.153,-8.348l-5.642,0c-1.567,0 -2.351,1.623 -2.351,4.87l0,138.782c0,3.478 1.097,5.217 3.291,5.217Z" style="fill-rule:nonzero;"/><path d="M1929.33,453.899c-0,-5.333 1.488,-8 4.466,-8l126.942,0c2.821,0 4.232,2.435 4.232,7.305l-0,40.348c-0,6.26 -2.038,9.391 -6.112,9.391l-70.759,-0c-3.604,-0 -5.407,2.203 -5.407,6.609l0,29.565c0,4.869 1.411,7.304 4.232,7.304l42.314,0c3.291,0 4.937,2.319 4.937,6.957l-0,43.13c-0,1.623 -0.314,3.014 -0.941,4.174c-0.627,1.159 -1.724,1.739 -3.291,1.739l-43.489,-0c-2.508,-0 -3.762,1.623 -3.762,4.87l0,34.782c0,3.246 0.941,4.87 2.821,4.87l76.401,-0c3.448,-0 5.171,2.203 5.171,6.608l0,42.783c0,2.087 -0.431,3.884 -1.292,5.391c-0.862,1.507 -2.312,2.261 -4.349,2.261l-125.767,0c-4.232,0 -6.347,-2.898 -6.347,-8.696l-0,-241.391Z" style="fill-rule:nonzero;"/><path d="M2092.47,703.986c-1.567,0 -2.86,-0.754 -3.879,-2.261c-1.019,-1.507 -1.528,-3.304 -1.528,-5.391l0,-241.391c0,-2.551 0.549,-4.696 1.646,-6.435c1.097,-1.739 2.507,-2.609 4.231,-2.609l70.053,0c24.292,0 42.785,5.74 55.479,17.218c12.694,11.478 19.041,28.464 19.041,50.956c0,12.058 -2.194,22.319 -6.582,30.783c-4.388,8.464 -12.459,16.753 -24.213,24.869c-0.313,0.232 -0.47,0.638 -0.47,1.218c-0,0.579 0.157,0.985 0.47,1.217c13.008,7.189 22.097,15.536 27.269,25.044c5.172,9.507 7.758,21.681 7.758,36.521c-0,23.884 -6.152,41.565 -18.454,53.044c-12.302,11.478 -31.148,17.217 -56.536,17.217l-74.285,0Zm73.109,-52.174c6.896,0 12.068,-2.782 15.515,-8.348c3.448,-5.565 5.172,-11.71 5.172,-18.434c0,-4.87 -0.823,-9.16 -2.468,-12.87c-1.646,-3.71 -3.918,-6.609 -6.817,-8.696c-2.9,-2.086 -6.308,-3.13 -10.226,-3.13l-20.922,0c-3.605,0 -5.407,2.435 -5.407,7.304l-0,36.522c-0,5.101 1.332,7.652 3.996,7.652l21.157,0Zm1.176,-105.043c2.821,-0 5.328,-0.58 7.522,-1.739c2.194,-1.16 4.075,-2.841 5.642,-5.044c1.567,-2.203 2.782,-4.695 3.644,-7.478c0.862,-2.783 1.293,-5.913 1.293,-9.391c-0,-7.652 -1.92,-13.739 -5.76,-18.261c-3.839,-4.522 -8.502,-6.783 -13.987,-6.783l-19.276,0c-3.605,0 -5.407,2.319 -5.407,6.957l-0,34.087c-0,5.101 1.332,7.652 3.996,7.652l22.333,-0Z" style="fill-rule:nonzero;"/><path d="M2491.16,445.899c3.134,0 5.289,1.334 6.464,4c1.176,2.667 1.372,5.971 0.588,9.914l-47.721,235.477c-1.41,5.798 -4.231,8.696 -8.463,8.696l-32.441,0c-4.544,0 -7.365,-2.898 -8.462,-8.696l-24.448,-122.434c-0.471,-2.783 -1.019,-4.232 -1.646,-4.348c-0.627,-0.116 -1.332,1.565 -2.116,5.043l-24.213,121.739c-1.097,5.798 -3.918,8.696 -8.463,8.696l-33.616,0c-4.231,0 -7.052,-2.898 -8.463,-8.696l-47.956,-235.477c-0.626,-3.943 -0.352,-7.247 0.823,-9.914c1.176,-2.666 3.252,-4 6.23,-4l38.788,0c2.507,0 4.27,0.638 5.289,1.914c1.019,1.275 1.763,3.072 2.233,5.391l24.918,129.043c0.471,2.551 0.98,3.884 1.528,4c0.549,0.116 0.98,-0.754 1.293,-2.609l24.684,-130.434c0.313,-2.319 1.018,-4.116 2.115,-5.391c1.097,-1.276 2.9,-1.914 5.407,-1.914l32.911,0c2.508,0 4.271,0.638 5.289,1.914c1.019,1.275 1.763,3.072 2.234,5.391l25.858,132.174c0.314,1.391 0.784,2.202 1.411,2.434c0.627,0.232 1.018,-0.348 1.175,-1.739l23.978,-132.869c0.314,-2.319 1.019,-4.116 2.116,-5.391c1.097,-1.276 2.899,-1.914 5.407,-1.914l27.269,0Z" style="fill-rule:nonzero;"/><path d="M2672.17,445.899c2.037,0 3.33,0.754 3.879,2.261c0.548,1.508 0.352,3.421 -0.588,5.739l-55.008,131.479c-1.097,2.318 -1.763,4.869 -1.998,7.652c-0.236,2.782 -0.353,7.884 -0.353,15.304l-0,85.565c-0,6.725 -2.586,10.087 -7.758,10.087l-39.493,0c-2.351,0 -3.957,-0.696 -4.819,-2.087c-0.862,-1.391 -1.293,-3.594 -1.293,-6.609l0,-91.478c0,-3.71 -0.274,-6.55 -0.823,-8.521c-0.548,-1.971 -1.371,-4.232 -2.468,-6.783l-55.008,-132.869c-1.097,-2.783 -1.293,-5.102 -0.588,-6.957c0.705,-1.855 2.312,-2.783 4.819,-2.783l47.251,0c2.351,0 3.996,0.522 4.937,1.566c0.94,1.043 1.959,2.956 3.056,5.739l28.914,77.217c0.784,2.087 1.45,3.188 1.998,3.304c0.549,0.116 1.215,-0.869 1.998,-2.956l28.445,-77.565c0.94,-3.015 1.959,-4.986 3.056,-5.913c1.097,-0.928 2.743,-1.392 4.937,-1.392l36.907,0Z" style="fill-rule:nonzero;"/><path d="M2846.6,692.856c0.784,3.014 0.744,5.623 -0.118,7.826c-0.862,2.203 -2.233,3.304 -4.113,3.304l-45.606,0c-3.291,0 -5.406,-2.435 -6.347,-7.304l-22.097,-89.739c-0.94,-3.71 -3.37,-5.565 -7.288,-5.565l-10.813,-0c-1.097,-0 -1.842,0.521 -2.233,1.565c-0.392,1.043 -0.588,1.797 -0.588,2.261l-0,88.695c-0,6.725 -2.586,10.087 -7.758,10.087l-39.493,0c-2.351,0 -3.957,-0.696 -4.819,-2.087c-0.862,-1.391 -1.293,-3.594 -1.293,-6.609l0,-241.391c0,-5.333 1.489,-8 4.467,-8l78.516,0c22.724,0 40.355,6.435 52.892,19.305c12.538,12.869 18.807,31.014 18.807,54.435c-0,10.898 -1.332,20.985 -3.997,30.26c-2.664,9.276 -6.308,17.218 -10.931,23.826c-4.623,6.609 -9.912,11.653 -15.868,15.131c-1.567,0.927 -1.88,3.13 -0.94,6.608l29.62,97.392Zm-71.699,-143.304c5.955,-0 10.539,-2.319 13.752,-6.957c3.213,-4.638 4.819,-10.667 4.819,-18.087c0,-8.812 -1.998,-15.536 -5.994,-20.174c-3.997,-4.637 -8.659,-6.956 -13.987,-6.956l-20.687,-0c-3.605,-0 -5.407,2.319 -5.407,6.956l-0,37.913c-0,4.87 1.332,7.305 3.996,7.305l23.508,-0Z" style="fill-rule:nonzero;"/><path d="M3012.52,453.899c-0,-5.333 1.489,-8 4.466,-8l44.665,0c2.821,0 4.232,2.435 4.232,7.305l-0,188.869c-0,3.246 0.94,4.87 2.82,4.87l70.759,-0c3.605,-0 5.407,2.203 5.407,6.608l-0,42.783c-0,2.087 -0.47,3.884 -1.411,5.391c-0.94,1.507 -2.429,2.261 -4.466,2.261l-120.125,0c-2.508,0 -4.192,-0.696 -5.054,-2.087c-0.862,-1.391 -1.293,-3.594 -1.293,-6.609l-0,-241.391Z" style="fill-rule:nonzero;"/><path d="M3163.68,453.899c0,-5.333 1.489,-8 4.467,-8l44.664,0c2.821,0 4.232,2.435 4.232,7.305l-0,188.869c-0,3.246 0.94,4.87 2.821,4.87l70.758,-0c3.605,-0 5.407,2.203 5.407,6.608l0,42.783c0,2.087 -0.47,3.884 -1.41,5.391c-0.941,1.507 -2.429,2.261 -4.467,2.261l-120.125,0c-2.507,0 -4.192,-0.696 -5.054,-2.087c-0.862,-1.391 -1.293,-3.594 -1.293,-6.609l0,-241.391Z" style="fill-rule:nonzero;"/><path d="M3305.66,703.986c-1.724,0 -2.977,-1.217 -3.761,-3.652c-0.783,-2.435 -0.705,-5.507 0.235,-9.217l56.889,-237.218c0.784,-2.782 1.646,-4.811 2.586,-6.086c0.94,-1.276 2.429,-1.914 4.466,-1.914l46.311,0c4.075,0 6.896,3.131 8.463,9.392l56.419,236.869c0.626,2.319 0.666,4.87 0.117,7.652c-0.548,2.783 -1.685,4.174 -3.409,4.174l-46.075,0c-2.664,0 -4.388,-1.971 -5.172,-5.913l-9.168,-40c-0.313,-1.159 -0.666,-2.145 -1.058,-2.956c-0.391,-0.812 -1.214,-1.218 -2.468,-1.218l-49.836,0c-1.881,0 -3.056,1.276 -3.527,3.826l-9.638,41.044c-0.313,1.391 -0.901,2.608 -1.763,3.652c-0.862,1.043 -2.155,1.565 -3.879,1.565l-35.732,0Zm92.621,-109.217c2.351,-0 3.056,-2.319 2.116,-6.957l-14.105,-59.478c-0.313,-1.159 -0.783,-1.739 -1.41,-1.739c-0.627,0 -1.097,0.58 -1.411,1.739l-14.339,59.13c-1.254,4.87 -0.471,7.305 2.35,7.305l26.799,-0Z" style="fill-rule:nonzero;"/><path d="M3495.61,453.899c-0,-5.333 1.488,-8 4.466,-8l125.297,0c2.821,0 4.231,2.435 4.231,7.305l0,40.348c0,6.26 -1.959,9.391 -5.877,9.391l-69.348,-0c-3.604,-0 -5.407,2.203 -5.407,6.609l0,32.695c0,4.638 1.411,6.957 4.232,6.957l43.019,-0c3.134,-0 4.702,2.319 4.702,6.956l-0,42.435c-0,3.942 -1.411,5.913 -4.232,5.913l-43.959,-0c-2.508,-0 -3.762,1.739 -3.762,5.217l0,84.174c0,6.725 -2.585,10.087 -7.757,10.087l-39.258,0c-2.508,0 -4.192,-0.696 -5.054,-2.087c-0.862,-1.391 -1.293,-3.594 -1.293,-6.609l-0,-241.391Z" style="fill-rule:nonzero;"/><path d="M3796.98,602.073c-0,26.667 -3.134,47.71 -9.403,63.131c-6.269,15.42 -15.045,26.318 -26.329,32.695c-11.284,6.377 -24.448,9.565 -39.493,9.565c-18.806,0 -33.695,-4.29 -44.665,-12.869c-10.97,-8.58 -18.806,-21.276 -23.508,-38.087c-4.701,-16.812 -7.052,-37.275 -7.052,-61.391l-0,-141.218c-0,-5.333 1.489,-8 4.466,-8l44.665,0c2.821,0 4.232,2.435 4.232,7.305l-0,150.26c-0,17.624 2.311,30.145 6.934,37.566c4.624,7.42 10.932,11.13 18.924,11.13c4.859,0 9.364,-1.449 13.517,-4.348c4.153,-2.898 7.484,-8 9.991,-15.304c2.508,-7.304 3.761,-17.333 3.761,-30.087l0,-148.522c0,-5.333 1.489,-8 4.467,-8l35.262,0c2.82,0 4.231,2.435 4.231,7.305l-0,148.869Z" style="fill-rule:nonzero;"/><path d="M3972.11,692.856c0.784,3.014 0.745,5.623 -0.117,7.826c-0.862,2.203 -2.234,3.304 -4.114,3.304l-45.605,0c-3.291,0 -5.407,-2.435 -6.347,-7.304l-22.098,-89.739c-0.94,-3.71 -3.369,-5.565 -7.287,-5.565l-10.814,-0c-1.097,-0 -1.841,0.521 -2.233,1.565c-0.392,1.043 -0.588,1.797 -0.588,2.261l0,88.695c0,6.725 -2.586,10.087 -7.757,10.087l-39.493,0c-2.351,0 -3.958,-0.696 -4.82,-2.087c-0.862,-1.391 -1.293,-3.594 -1.293,-6.609l0,-241.391c0,-5.333 1.489,-8 4.467,-8l78.516,0c22.724,0 40.355,6.435 52.893,19.305c12.537,12.869 18.806,31.014 18.806,54.435c-0,10.898 -1.332,20.985 -3.996,30.26c-2.665,9.276 -6.308,17.218 -10.932,23.826c-4.623,6.609 -9.912,11.653 -15.867,15.131c-1.567,0.927 -1.881,3.13 -0.941,6.608l29.62,97.392Zm-71.699,-143.304c5.956,-0 10.54,-2.319 13.752,-6.957c3.213,-4.638 4.82,-10.667 4.82,-18.087c-0,-8.812 -1.999,-15.536 -5.995,-20.174c-3.996,-4.637 -8.659,-6.956 -13.987,-6.956l-20.687,-0c-3.604,-0 -5.407,2.319 -5.407,6.956l0,37.913c0,4.87 1.332,7.305 3.997,7.305l23.507,-0Z" style="fill-rule:nonzero;"/><path d="M4135.91,703.986c-1.724,0 -2.977,-1.217 -3.761,-3.652c-0.783,-2.435 -0.705,-5.507 0.235,-9.217l56.889,-237.218c0.784,-2.782 1.646,-4.811 2.586,-6.086c0.94,-1.276 2.429,-1.914 4.466,-1.914l46.311,0c4.075,0 6.896,3.131 8.463,9.392l56.418,236.869c0.627,2.319 0.667,4.87 0.118,7.652c-0.548,2.783 -1.685,4.174 -3.409,4.174l-46.075,0c-2.664,0 -4.388,-1.971 -5.172,-5.913l-9.168,-40c-0.313,-1.159 -0.666,-2.145 -1.058,-2.956c-0.391,-0.812 -1.214,-1.218 -2.468,-1.218l-49.836,0c-1.881,0 -3.056,1.276 -3.527,3.826l-9.638,41.044c-0.313,1.391 -0.901,2.608 -1.763,3.652c-0.862,1.043 -2.155,1.565 -3.879,1.565l-35.732,0Zm92.621,-109.217c2.351,-0 3.056,-2.319 2.116,-6.957l-14.105,-59.478c-0.313,-1.159 -0.783,-1.739 -1.41,-1.739c-0.627,0 -1.097,0.58 -1.411,1.739l-14.34,59.13c-1.253,4.87 -0.47,7.305 2.351,7.305l26.799,-0Z" style="fill-rule:nonzero;"/></g><g><path d="M1585.5,179.749c-0,19.292 -3.504,35.875 -10.512,49.75c-7.007,13.875 -16.668,24.578 -28.981,32.11c-12.314,7.532 -26.68,11.298 -43.098,11.298l-41.145,-0c-2.403,-0 -3.604,1.453 -3.604,4.36l-0,89.591c-0,7.664 -3.304,11.496 -9.911,11.496l-50.456,0c-3.003,0 -5.055,-0.793 -6.156,-2.378c-1.102,-1.586 -1.652,-4.097 -1.652,-7.532l-0,-275.115c-0,-6.078 1.902,-9.117 5.706,-9.117l99.41,-0c16.418,-0 31.484,3.501 45.199,10.505c13.715,7.003 24.677,17.574 32.886,31.713c8.209,14.139 12.314,31.912 12.314,53.319Zm-69.677,-1.19c0,-6.342 -1.101,-11.826 -3.303,-16.451c-2.203,-4.625 -5.206,-8.193 -9.01,-10.703c-3.804,-2.511 -8.009,-3.766 -12.614,-3.766l-25.829,-0c-4.605,-0 -6.907,2.775 -6.907,8.324l-0,44.796c-0,5.814 1.702,8.721 5.105,8.721l29.433,-0c7.208,-0 12.864,-3.039 16.969,-9.118c4.104,-6.078 6.156,-13.346 6.156,-21.803Z" style="fill:#ed0873;fill-rule:nonzero;"/><path d="M1609.52,93.329c0,-6.078 1.903,-9.117 5.707,-9.117l57.062,-0c3.604,-0 5.406,2.775 5.406,8.325l0,215.255c0,3.7 1.202,5.549 3.604,5.549l90.4,0c4.605,0 6.907,2.511 6.907,7.532l0,48.76c0,2.378 -0.6,4.427 -1.802,6.144c-1.201,1.718 -3.103,2.577 -5.706,2.577l-153.469,0c-3.203,0 -5.356,-0.793 -6.457,-2.378c-1.101,-1.586 -1.652,-4.097 -1.652,-7.532l0,-275.115Z" style="fill:#ed0873;fill-rule:nonzero;"/><path d="M1802.63,93.329c-0,-6.078 1.902,-9.117 5.706,-9.117l162.179,-0c3.604,-0 5.406,2.775 5.406,8.325l-0,45.984c-0,7.136 -2.603,10.703 -7.809,10.703l-90.4,0c-4.605,0 -6.907,2.511 -6.907,7.532l-0,33.696c-0,5.55 1.802,8.325 5.406,8.325l54.059,-0c4.205,-0 6.307,2.642 6.307,7.928l0,49.156c0,1.85 -0.4,3.435 -1.201,4.757c-0.801,1.321 -2.203,1.982 -4.205,1.982l-55.561,-0c-3.203,-0 -4.805,1.85 -4.805,5.55l-0,39.642c-0,3.7 1.201,5.549 3.604,5.549l97.607,0c4.405,0 6.607,2.511 6.607,7.532l0,48.76c0,2.378 -0.55,4.427 -1.651,6.144c-1.102,1.718 -2.954,2.577 -5.556,2.577l-160.677,0c-5.406,0 -8.109,-3.303 -8.109,-9.91l-0,-275.115Z" style="fill:#ed0873;fill-rule:nonzero;"/><path d="M2066.93,84.212c3.604,-0 5.406,2.775 5.406,8.325l-0,274.321c-0,4.228 -0.801,7.202 -2.403,8.919c-1.602,1.718 -4.105,2.577 -7.508,2.577l-50.156,0c-3.203,0 -5.355,-0.793 -6.457,-2.378c-1.101,-1.586 -1.651,-4.097 -1.651,-7.532l-0,-275.115c-0,-6.078 1.902,-9.117 5.706,-9.117l57.063,-0Z" style="fill:#ed0873;fill-rule:nonzero;"/><path d="M2112.28,378.354c-5.807,0 -8.71,-3.964 -8.71,-11.892l-0,-272.34c-0,-3.7 0.601,-6.276 1.802,-7.73c1.201,-1.453 3.304,-2.18 6.307,-2.18l62.919,-0c6.908,-0 12.564,0.132 16.969,0.396c26.829,1.057 49.004,7.929 66.523,20.614c17.519,12.685 30.584,29.797 39.193,51.336c8.61,21.539 12.914,46.315 12.914,74.328c0,28.278 -4.405,53.583 -13.214,75.915c-8.81,22.331 -22.024,39.84 -39.644,52.525c-17.619,12.685 -39.643,19.028 -66.073,19.028l-78.986,0Zm63.67,-62.238l2.102,0c12.614,0 23.426,-2.775 32.436,-8.324c9.009,-5.55 15.967,-14.668 20.873,-27.353c4.905,-12.686 7.358,-29.467 7.358,-50.345c-0,-18.5 -2.003,-33.894 -6.007,-46.183c-4.004,-12.289 -10.211,-21.605 -18.62,-27.948c-8.41,-6.342 -19.121,-9.514 -32.136,-9.514l-7.208,0c-2.002,0 -3.003,1.85 -3.003,5.55l-0,158.171c-0,3.964 1.401,5.946 4.205,5.946Z" style="fill:#ed0873;fill-rule:nonzero;"/><path d="M2335.12,93.329c-0,-6.078 1.902,-9.117 5.706,-9.117l57.063,-0c3.604,-0 5.406,2.775 5.406,8.325l-0,215.255c-0,3.7 1.201,5.549 3.604,5.549l90.399,0c4.605,0 6.908,2.511 6.908,7.532l-0,48.76c-0,2.378 -0.601,4.427 -1.802,6.144c-1.202,1.718 -3.104,2.577 -5.707,2.577l-153.468,0c-3.204,0 -5.356,-0.793 -6.457,-2.378c-1.102,-1.586 -1.652,-4.097 -1.652,-7.532l-0,-275.115Z" style="fill:#ed0873;fill-rule:nonzero;"/><path d="M2528.23,93.329c0,-6.078 1.902,-9.117 5.706,-9.117l162.179,-0c3.604,-0 5.406,2.775 5.406,8.325l-0,45.984c-0,7.136 -2.603,10.703 -7.809,10.703l-90.399,0c-4.605,0 -6.908,2.511 -6.908,7.532l0,33.696c0,5.55 1.802,8.325 5.406,8.325l54.06,-0c4.204,-0 6.307,2.642 6.307,7.928l-0,49.156c-0,1.85 -0.401,3.435 -1.202,4.757c-0.801,1.321 -2.202,1.982 -4.204,1.982l-55.562,-0c-3.203,-0 -4.805,1.85 -4.805,5.55l0,39.642c0,3.7 1.201,5.549 3.604,5.549l97.608,0c4.404,0 6.607,2.511 6.607,7.532l-0,48.76c-0,2.378 -0.551,4.427 -1.652,6.144c-1.101,1.718 -2.953,2.577 -5.556,2.577l-160.677,0c-5.406,0 -8.109,-3.303 -8.109,-9.91l0,-275.115Z" style="fill:#ed0873;fill-rule:nonzero;"/><path d="M2792.52,84.212c3.604,-0 5.406,2.775 5.406,8.325l-0,274.321c-0,4.228 -0.801,7.202 -2.403,8.919c-1.602,1.718 -4.104,2.577 -7.508,2.577l-50.155,0c-3.204,0 -5.356,-0.793 -6.457,-2.378c-1.102,-1.586 -1.652,-4.097 -1.652,-7.532l-0,-275.115c-0,-6.078 1.902,-9.117 5.706,-9.117l57.063,-0Z" style="fill:#ed0873;fill-rule:nonzero;"/><path d="M2961.91,163.099c-3.604,-5.286 -8.109,-10.175 -13.515,-14.668c-5.406,-4.492 -14.015,-6.739 -25.828,-6.739c-11.212,0 -19.121,2.115 -23.726,6.343c-4.605,4.229 -6.908,8.853 -6.908,13.875c0,2.378 0.551,4.823 1.652,7.333c1.101,2.511 3.053,4.89 5.857,7.136c2.803,2.246 6.707,4.162 11.712,5.748l49.855,17.046c18.821,6.078 32.686,16.914 41.596,32.506c8.91,15.593 13.365,33.564 13.365,53.913c-0,19.557 -3.905,36.603 -11.713,51.138c-7.809,14.535 -18.871,25.767 -33.187,33.696c-14.315,7.928 -31.384,11.892 -51.206,11.892c-14.616,0 -28.481,-2.18 -41.596,-6.541c-13.114,-4.36 -24.577,-10.505 -34.388,-18.433c-9.81,-7.928 -17.118,-17.046 -21.924,-27.353c-1.201,-2.907 -1.702,-5.286 -1.501,-7.135c0.2,-1.85 1.301,-3.833 3.303,-5.947l30.934,-28.145c2.803,-2.379 5.106,-3.37 6.908,-2.974c1.802,0.397 3.304,1.652 4.505,3.766c4.405,7.4 8.81,13.479 13.214,18.236c4.405,4.757 9.461,8.192 15.167,10.306c5.706,2.115 12.464,3.172 20.272,3.172c11.013,-0 19.822,-1.982 26.429,-5.946c6.608,-3.965 9.911,-9.647 9.911,-17.046c0,-3.172 -0.7,-6.145 -2.102,-8.92c-1.401,-2.775 -3.454,-5.219 -6.157,-7.334c-2.703,-2.114 -6.257,-3.832 -10.661,-5.153l-45.651,-14.667c-12.013,-3.965 -22.424,-10.241 -31.234,-18.83c-8.81,-8.589 -15.617,-18.83 -20.422,-30.723c-4.806,-11.892 -7.208,-24.71 -7.208,-38.452c-0,-17.178 3.754,-32.903 11.262,-47.174c7.508,-14.271 18.22,-25.635 32.135,-34.092c13.916,-8.457 30.284,-12.685 49.104,-12.685c12.014,-0 23.476,1.783 34.388,5.351c10.912,3.568 20.673,8.523 29.282,14.866c8.61,6.343 15.217,13.875 19.822,22.596c1.001,1.85 1.752,3.766 2.253,5.748c0.5,1.982 -0.251,4.03 -2.253,6.144l-32.736,31.317c-1.401,1.322 -2.703,1.784 -3.904,1.388c-1.201,-0.397 -2.903,-1.916 -5.106,-4.559Z" style="fill:#ed0873;fill-rule:nonzero;"/><path d="M3102.47,84.212c3.604,-0 5.406,2.775 5.406,8.325l-0,274.321c-0,4.228 -0.801,7.202 -2.403,8.919c-1.602,1.718 -4.104,2.577 -7.508,2.577l-50.155,0c-3.204,0 -5.356,-0.793 -6.457,-2.378c-1.102,-1.586 -1.652,-4.097 -1.652,-7.532l-0,-275.115c-0,-6.078 1.902,-9.117 5.706,-9.117l57.063,-0Z" style="fill:#ed0873;fill-rule:nonzero;"/><path d="M3439.44,84.212c4.004,-0 6.757,1.519 8.259,4.559c1.501,3.039 1.752,6.805 0.751,11.297l-60.968,268.376c-1.802,6.607 -5.405,9.91 -10.811,9.91l-41.446,0c-5.806,0 -9.41,-3.303 -10.812,-9.91l-31.234,-139.54c-0.601,-3.171 -1.302,-4.823 -2.103,-4.955c-0.8,-0.132 -1.701,1.784 -2.703,5.748l-30.934,138.747c-1.401,6.607 -5.005,9.91 -10.811,9.91l-42.948,0c-5.406,0 -9.01,-3.303 -10.812,-9.91l-61.267,-268.376c-0.801,-4.492 -0.451,-8.258 1.051,-11.297c1.502,-3.04 4.155,-4.559 7.959,-4.559l49.554,-0c3.204,-0 5.456,0.727 6.758,2.18c1.301,1.454 2.252,3.502 2.853,6.145l31.835,147.071c0.601,2.907 1.251,4.426 1.952,4.558c0.701,0.133 1.252,-0.858 1.652,-2.973l31.535,-148.656c0.4,-2.643 1.301,-4.691 2.703,-6.145c1.401,-1.453 3.704,-2.18 6.907,-2.18l42.046,-0c3.204,-0 5.456,0.727 6.758,2.18c1.301,1.454 2.252,3.502 2.853,6.145l33.036,150.638c0.401,1.586 1.001,2.511 1.802,2.775c0.801,0.265 1.302,-0.396 1.502,-1.982l30.634,-151.431c0.4,-2.643 1.301,-4.691 2.703,-6.145c1.401,-1.453 3.704,-2.18 6.907,-2.18l34.839,-0Z" style="fill:#ed0873;fill-rule:nonzero;"/><path d="M3557.16,80.248c12.614,-0 24.277,2.246 34.989,6.739c10.711,4.492 20.222,10.835 28.531,19.028c8.309,8.192 15.117,17.839 20.423,28.938c5.305,11.1 8.959,23.257 10.962,36.471c1.001,5.55 1.151,9.117 0.45,10.703c-0.701,1.586 -2.152,2.643 -4.355,3.171l-52.558,4.361c-2.202,-0 -3.604,-0.595 -4.204,-1.784c-0.601,-1.189 -1.101,-3.105 -1.502,-5.748c-1.602,-11.628 -4.655,-21.34 -9.16,-29.137c-4.505,-7.796 -11.763,-11.694 -21.774,-11.694c-11.212,-0 -20.172,6.541 -26.879,19.623c-6.708,13.081 -10.062,35.743 -10.062,67.985c0,32.771 3.054,55.697 9.161,68.779c6.106,13.082 15.266,19.623 27.48,19.623c10.011,-0 18.871,-3.37 26.579,-10.109c7.709,-6.739 14.166,-18.83 19.371,-36.272c1.001,-3.172 3.805,-4.229 8.41,-3.172l37.541,9.911c1.001,0.264 2.102,1.189 3.304,2.775c1.201,1.585 1.501,5.021 0.901,10.307c-0.601,4.228 -2.203,10.042 -4.806,17.442c-2.603,7.4 -6.307,15.394 -11.112,23.983c-4.805,8.589 -11.012,16.65 -18.62,24.182c-7.609,7.532 -16.669,13.742 -27.18,18.631c-10.512,4.89 -22.675,7.334 -36.491,7.334c-21.423,0 -40.094,-6.673 -56.011,-20.019c-15.918,-13.346 -28.231,-31.713 -36.941,-55.102c-8.709,-23.389 -13.064,-50.015 -13.064,-79.878c-0,-29.864 4.355,-55.763 13.064,-77.698c8.71,-21.935 21.073,-38.981 37.091,-51.138c16.018,-12.157 34.838,-18.235 56.462,-18.235Z" style="fill:#ed0873;fill-rule:nonzero;"/><path d="M3751.48,260.618c-3.204,-0 -4.805,1.982 -4.805,5.946l-0,100.294c-0,7.664 -3.304,11.496 -9.911,11.496l-50.155,0c-3.204,0 -5.356,-0.793 -6.458,-2.378c-1.101,-1.586 -1.651,-4.097 -1.651,-7.532l-0,-275.115c-0,-6.078 1.902,-9.117 5.706,-9.117l57.063,-0c3.604,-0 5.406,2.775 5.406,8.325l-0,91.969c-0,5.285 1.802,7.928 5.406,7.928l50.455,-0c3.604,-0 5.406,-2.643 5.406,-7.928l0,-91.969c0,-5.55 1.802,-8.325 5.406,-8.325l57.063,-0c3.804,-0 5.706,3.039 5.706,9.117l0,275.115c0,3.435 -0.551,5.946 -1.652,7.532c-1.101,1.585 -3.253,2.378 -6.457,2.378l-50.155,0c-6.607,0 -9.911,-3.832 -9.911,-11.496l0,-100.294c0,-3.964 -1.602,-5.946 -4.805,-5.946l-51.657,-0Z" style="fill:#ed0873;fill-rule:nonzero;"/><path d="M4306.85,127.496c1.564,2.064 1.564,4.129 -0,6.194l-3.52,4.645l0,4.646c-15.642,21.679 -37.15,54.198 -64.524,97.556c16.425,29.938 30.503,52.649 42.234,68.134c2.347,3.097 2.738,6.194 1.173,9.291c-1.564,5.162 -3.519,9.291 -5.865,12.388c-0.783,2.065 -1.956,3.097 -3.52,3.097c-2.346,0 -3.911,1.033 -4.693,3.097c-0.782,2.065 -0.782,4.13 0,6.194c-1.564,4.13 -3.519,7.227 -5.865,9.291c-1.565,3.097 -3.52,3.614 -5.866,1.549c-0.782,-1.032 -1.565,-2.581 -2.347,-4.646c-0.782,-2.064 -2.346,-2.064 -4.692,0c-3.129,4.13 -5.475,7.227 -7.039,9.291c-3.129,3.097 -5.866,3.097 -8.212,0c-3.911,-5.161 -14.469,-24.776 -31.676,-58.843c-19.553,33.035 -33.631,58.327 -42.234,75.877c-3.128,6.194 -5.866,8.259 -8.212,6.194c-0.782,-1.032 -1.955,-2.581 -3.52,-4.645c-1.564,-3.097 -1.955,-5.678 -1.173,-7.743c0.782,-1.032 0.782,-2.065 0,-3.097l-2.346,-0c-2.346,1.032 -4.302,2.065 -5.866,3.097c-5.475,-7.226 -8.603,-11.872 -9.385,-13.937c-2.347,-3.097 -2.738,-6.194 -1.173,-9.291c2.346,-3.097 2.737,-7.226 1.173,-12.388c-1.564,-3.097 -2.738,-6.71 -3.52,-10.839c12.514,-21.679 29.329,-48.52 50.446,-80.523c-18.77,-42.326 -30.893,-75.877 -36.368,-100.653c4.693,-7.226 8.604,-13.42 11.732,-18.582c1.564,3.097 2.737,4.646 3.519,4.646c1.565,1.032 2.738,1.548 3.52,1.548c1.564,0 2.346,-1.032 2.346,-3.097c0.782,-7.226 3.52,-11.356 8.212,-12.388c2.347,0 4.302,1.549 5.866,4.646c11.732,25.808 23.855,50.068 36.368,72.78c28.156,-40.262 51.62,-71.748 70.39,-94.46l10.559,12.389c-0.782,2.064 -1.173,3.613 -1.173,4.645c-0,2.065 0.782,3.613 2.346,4.646c0.782,1.032 3.128,1.032 7.039,-0c3.128,4.129 5.084,7.226 5.866,9.291Z" style="fill:#ed0873;fill-rule:nonzero;"/></g></g></svg>